<?xml version="1.0" standalone="no"?>
<!DOCTYPE svg PUBLIC "-//W3C//DTD SVG 20010904//EN"
 "http://www.w3.org/TR/2001/REC-SVG-20010904/DTD/svg10.dtd">
<svg version="1.0" xmlns="http://www.w3.org/2000/svg"
 width="16.000000pt" height="16.000000pt" viewBox="0 0 16.000000 16.000000"
 preserveAspectRatio="xMidYMid meet">
<metadata>
Created by potrace 1.11, written by Peter Selinger 2001-2013
</metadata>
<g transform="translate(0.000000,16.000000) scale(0.002528,-0.002528)"
fill="#000000" stroke="none">
<path d="M2719 6209 c-52 -67 -97 -126 -100 -131 -4 -6 -37 -16 -75 -24 -38
-8 -133 -33 -210 -55 l-141 -41 -149 61 c-82 34 -153 61 -156 61 -6 0 -590
-334 -607 -346 -1 -1 -13 -76 -26 -166 l-23 -163 -153 -154 -154 -153 -163
-23 c-90 -13 -165 -25 -166 -26 -9 -12 -346 -601 -346 -606 0 -3 27 -73 61
-156 l61 -150 -36 -121 c-19 -67 -44 -161 -55 -210 -11 -49 -24 -92 -29 -95
-5 -3 -64 -48 -131 -100 l-121 -94 0 -353 0 -353 132 -103 131 -103 23 -103
c13 -57 38 -150 55 -207 l32 -104 -63 -154 -63 -154 176 -304 175 -304 163
-23 163 -23 154 -155 155 -154 22 -161 c13 -88 25 -162 27 -164 13 -14 595
-345 605 -345 7 0 80 27 161 59 l149 60 109 -34 c60 -18 153 -43 207 -55 l98
-23 100 -128 101 -129 356 0 357 1 98 128 98 129 97 22 c53 12 147 37 209 56
l112 34 153 -64 154 -63 305 176 304 176 23 162 23 162 155 155 155 155 162
23 162 23 172 295 c94 162 172 303 172 312 1 9 -26 83 -59 164 l-60 148 24 75
c31 96 50 166 71 261 l16 76 129 99 129 100 0 357 1 356 -128 100 -129 100
-28 118 c-15 65 -40 158 -56 208 l-28 90 60 147 c32 80 59 153 59 161 0 11
-329 591 -344 606 -3 2 -77 14 -165 27 l-160 22 -155 155 -155 155 -23 162
-23 163 -304 176 -304 175 -154 -63 -154 -63 -104 32 c-57 17 -150 42 -207 55
l-103 23 -103 131 -103 132 -353 0 -353 0 -94 -121z m806 -334 c310 -41 582
-125 867 -267 266 -133 464 -275 687 -492 435 -426 697 -936 796 -1551 22
-136 31 -518 16 -671 -88 -865 -578 -1635 -1323 -2080 -306 -182 -649 -303
-1025 -361 -171 -27 -594 -24 -778 5 -489 77 -931 271 -1315 579 -115 91 -320
297 -412 413 -322 403 -531 907 -589 1420 -17 151 -14 469 5 624 78 613 349
1168 781 1601 457 457 1047 732 1705 795 131 12 440 4 585 -15z"/>
<path d="M2980 5783 c-373 -35 -667 -115 -965 -262 -809 -399 -1346 -1157
-1456 -2056 -18 -148 -16 -484 5 -635 79 -586 340 -1115 751 -1525 408 -408
912 -657 1510 -747 121 -18 569 -18 690 0 437 66 810 211 1154 450 364 252
659 597 856 997 89 181 141 323 189 512 62 247 71 333 71 653 0 307 -12 410
-70 639 -255 1007 -1091 1776 -2115 1945 -183 30 -469 44 -620 29z m292 -88
c2 -3 -12 -24 -31 -47 -81 -94 -98 -108 -129 -108 -51 0 -49 20 4 69 32 30 39
39 19 27 -16 -10 -39 -27 -51 -37 -26 -24 -34 -24 -34 2 0 58 63 98 156 99 33
0 63 -2 66 -5z m-259 -11 c-6 -3 -26 -29 -44 -57 -49 -78 -79 -107 -110 -107
-42 0 -44 16 -8 63 l33 42 -42 -40 c-36 -33 -42 -36 -43 -20 -2 36 2 50 24 74
33 35 75 50 142 50 33 0 55 -3 48 -5z m513 -11 c14 -5 -85 -112 -123 -132 -29
-15 -58 -14 -72 2 -8 10 -4 20 17 39 15 14 36 30 47 36 11 6 15 12 9 12 -6 0
-29 -13 -52 -30 -43 -31 -58 -27 -43 12 12 32 40 54 81 67 32 9 104 6 136 -6z
m-822 -97 c-46 -88 -83 -119 -119 -99 -14 8 -12 16 20 64 32 49 33 51 6 23
-16 -18 -34 -40 -40 -50 -9 -17 -12 -17 -21 -4 -36 53 67 149 161 150 l36 0
-43 -84z m1082 46 c13 -7 12 -11 -9 -25 -13 -8 -45 -34 -71 -56 -48 -42 -92
-53 -125 -32 -19 12 -1 35 48 61 20 11 32 19 26 19 -5 1 -29 -10 -52 -24 l-43
-24 0 23 c0 31 42 68 87 75 39 7 113 -2 139 -17z m-1322 -84 c-14 -35 -30 -74
-37 -88 -16 -31 -58 -55 -81 -47 -16 6 -15 12 12 62 36 65 24 64 -14 -1 -28
-48 -44 -45 -44 8 0 53 93 127 161 128 l27 0 -24 -62z m1535 24 c25 -9 43 -21
40 -27 -2 -5 -33 -29 -68 -52 -69 -45 -127 -57 -150 -29 -15 17 2 31 66 56 26
11 42 19 36 20 -7 0 -36 -9 -65 -20 -29 -11 -54 -20 -55 -20 -1 0 3 14 9 31
19 56 102 74 187 41z m-1764 -59 c-4 -10 -15 -49 -25 -88 -13 -49 -26 -76 -45
-93 -53 -45 -75 -10 -38 62 8 15 11 26 6 23 -5 -4 -18 -25 -28 -47 -17 -38
-20 -40 -32 -24 -37 51 21 136 116 170 48 18 54 17 46 -3z m952 -39 c21 -26
50 -59 65 -74 33 -33 24 -40 -47 -40 -83 0 -155 48 -155 104 l0 29 23 -20 c12
-11 36 -29 52 -39 22 -13 18 -7 -14 22 -50 45 -48 64 4 64 28 0 40 -8 72 -46z
m206 26 c14 -11 42 -47 62 -80 20 -33 41 -60 46 -60 6 0 7 -4 4 -10 -17 -28
-131 -2 -180 42 -41 35 -46 73 -15 106 26 27 50 28 83 2z m-484 -4 c15 -8 43
-32 61 -53 18 -21 45 -46 59 -55 24 -16 24 -17 6 -25 -11 -4 -50 -8 -87 -8
-75 0 -116 21 -132 68 -13 36 -2 43 31 20 15 -11 39 -25 53 -32 l25 -12 -25
18 c-13 10 -36 28 -50 41 -24 22 -25 22 -6 37 24 19 30 19 65 1z m1340 -26
c45 -22 60 -40 36 -40 -9 0 -45 -16 -79 -35 -71 -40 -114 -44 -141 -15 -17 19
-17 20 26 41 41 19 27 21 -29 4 -20 -7 -21 -5 -14 16 21 58 117 72 201 29z
m-611 -2 c6 -6 30 -46 51 -89 l39 -79 -35 0 c-44 0 -101 24 -135 57 -21 20
-28 36 -28 65 0 45 10 48 32 10 9 -15 27 -36 39 -47 16 -14 13 -7 -10 27 -40
55 -37 84 7 73 15 -4 33 -11 40 -17z m-950 -22 c15 -8 38 -26 52 -41 14 -15
39 -34 55 -43 l30 -15 -35 -15 c-80 -33 -190 -10 -211 45 -13 35 -4 40 32 19
17 -10 33 -16 35 -13 3 3 -8 13 -25 23 -30 18 -38 34 -24 47 11 12 63 8 91 -7z
m1180 -39 c12 -13 31 -50 42 -82 11 -33 25 -64 30 -69 15 -15 12 -26 -6 -26
-73 0 -174 73 -174 126 0 56 15 57 49 4 45 -69 57 -73 16 -4 -19 31 -32 61
-29 65 10 17 51 9 72 -14z m-1873 -4 c-4 -10 -11 -48 -16 -86 -10 -76 -21
-102 -50 -118 -45 -24 -52 0 -25 86 5 16 -20 -29 -38 -70 -8 -17 -26 18 -26
51 0 44 38 95 95 126 59 32 70 34 60 11z m449 -17 c18 -8 52 -28 76 -45 24
-17 49 -31 57 -31 26 0 12 -17 -29 -36 -60 -27 -140 -25 -172 5 -20 19 -42 61
-31 61 1 0 19 -7 38 -15 55 -23 67 -18 17 8 -49 25 -53 37 -19 54 29 16 23 16
63 -1z m2012 -26 c23 -11 49 -29 59 -40 18 -19 17 -20 -6 -20 -13 0 -48 -11
-77 -25 -66 -31 -112 -32 -138 -4 -22 24 -11 35 46 45 59 10 58 14 -2 9 -46
-4 -58 -2 -58 9 0 45 104 60 176 26z m-366 -28 c14 -12 29 -43 40 -88 10 -38
21 -77 25 -86 9 -23 -12 -24 -63 -2 -75 31 -126 108 -102 154 6 11 13 20 15
20 3 0 16 -22 30 -50 14 -27 28 -50 30 -50 3 0 -4 18 -15 40 -26 50 -26 80 -1
80 10 0 29 -8 41 -18z m-1793 -70 c39 -20 69 -40 66 -45 -12 -20 -91 -47 -138
-47 -55 0 -89 17 -98 51 -5 18 -2 20 20 14 65 -16 86 -15 38 2 -55 20 -64 40
-25 60 30 15 44 12 137 -35z m-535 -69 c-4 -96 -21 -135 -62 -141 -22 -4 -23
-1 -17 40 3 24 9 53 12 63 3 11 -1 7 -9 -10 -8 -16 -15 -43 -16 -58 0 -34 -19
-32 -37 5 -24 48 17 122 92 169 17 11 33 19 36 19 3 0 4 -39 1 -87z m2529 47
c27 -15 49 -62 49 -107 1 -21 7 -55 14 -75 17 -47 9 -48 -60 -8 -79 45 -121
135 -79 170 12 10 16 8 25 -15 5 -14 10 -30 10 -34 0 -4 7 -16 15 -27 13 -17
13 -15 0 18 -17 43 -20 88 -4 88 6 0 19 -5 30 -10z m369 -15 c14 -7 38 -27 54
-44 26 -27 27 -31 10 -31 -10 0 -48 -9 -82 -20 -82 -26 -95 -25 -129 4 -34 29
-27 38 35 47 l47 6 -52 2 c-44 1 -51 4 -46 17 15 41 102 51 163 19z m-2590
-60 c33 -14 69 -25 81 -25 21 0 22 -1 4 -20 -28 -31 -97 -60 -144 -60 -49 0
-76 12 -92 41 -10 20 -9 20 48 15 52 -5 54 -4 16 4 -24 5 -50 13 -59 18 -15 8
-15 11 5 31 28 28 68 27 141 -4z m-510 -135 c0 -94 -2 -103 -25 -125 -40 -41
-48 -33 -43 43 3 38 2 58 -3 47 -4 -11 -8 -39 -8 -62 -1 -48 -12 -54 -35 -21
-20 28 -20 71 -2 107 13 25 99 111 111 111 3 0 5 -45 5 -100z m2950 70 c24
-24 28 -43 32 -137 3 -50 0 -73 -8 -73 -26 0 -102 71 -118 110 -20 51 -20 63
2 91 l19 22 12 -46 c6 -26 13 -47 15 -47 2 0 1 23 -2 50 -4 41 -2 50 12 50 9
0 25 -9 36 -20z m318 -25 c55 -24 150 -122 97 -102 -8 4 -47 0 -86 -8 -80 -15
-122 -7 -140 27 -13 24 -14 24 41 36 l45 10 -42 1 c-48 1 -54 12 -21 35 28 20
59 20 106 1z m-2966 -35 c34 -11 74 -20 87 -20 24 0 24 0 5 -21 -59 -65 -170
-94 -213 -55 -31 28 -26 36 27 37 31 1 37 3 17 6 -70 8 -76 12 -65 34 11 19
41 37 67 38 6 1 40 -8 75 -19z m2791 -177 c3 -3 3 20 0 51 -5 51 -4 56 14 56
47 0 64 -49 54 -165 l-6 -80 -49 45 c-76 70 -96 140 -53 183 l22 22 6 -53 c4
-29 9 -56 12 -59z m-3286 72 c-4 -8 0 -47 8 -86 15 -80 7 -122 -27 -140 -24
-13 -23 -14 -36 36 l-10 40 -1 -37 c-1 -43 -13 -48 -35 -16 -21 29 -20 64 3
113 23 51 115 136 98 90z m3646 -41 c42 -21 75 -52 93 -86 l15 -28 -101 0
c-87 0 -103 3 -120 20 -34 34 -26 50 28 52 l47 1 -42 4 c-46 4 -57 24 -25 42
25 15 69 13 105 -5z m-3265 -8 c17 0 32 -3 32 -6 0 -3 -17 -22 -37 -42 -69
-65 -135 -85 -181 -52 -34 23 -27 34 26 35 31 1 37 3 17 6 -82 10 -90 18 -54
54 20 20 28 21 93 14 39 -4 86 -8 104 -9z m3123 -95 c26 -21 28 -49 13 -166
l-10 -70 -46 45 c-64 63 -83 141 -46 188 15 18 37 15 32 -5 -2 -10 0 -38 5
-63 l9 -45 1 68 c1 37 5 67 10 67 5 0 19 -8 32 -19z m-3656 -158 c21 -60 19
-77 -10 -110 -21 -24 -26 -26 -35 -13 -5 8 -11 40 -12 70 l-2 55 -5 -68 c-6
-67 -6 -67 -28 -52 -49 34 -31 139 35 208 l27 28 8 -37 c4 -21 14 -57 22 -81z
m388 82 c-37 -65 -106 -115 -160 -115 -16 0 -40 8 -53 17 l-25 18 50 11 50 12
-47 1 c-41 1 -48 4 -48 20 0 39 37 52 142 49 61 -2 94 -6 91 -13z m3582 -24
c26 -14 101 -109 93 -117 -2 -1 -48 1 -102 5 -86 7 -102 11 -118 31 -33 41
-24 53 35 47 32 -3 45 -2 32 3 -11 5 -30 9 -42 9 -34 1 -37 18 -6 35 31 16 62
12 108 -13z m-211 -138 c-1 -38 0 -52 2 -33 12 106 26 124 58 78 21 -30 20
-59 -7 -146 l-22 -73 -27 28 c-56 61 -75 144 -42 191 28 40 39 27 38 -45z
m-3530 -25 c-47 -94 -143 -144 -196 -104 -26 19 -23 23 20 31 20 3 44 11 52
16 12 8 11 9 -5 5 -11 -3 -37 -8 -57 -12 -33 -5 -38 -4 -38 13 0 11 11 30 25
43 20 19 40 24 112 30 49 4 91 8 96 9 4 0 0 -14 -9 -31z m-391 -51 c38 -109
41 -126 31 -154 -6 -18 -17 -28 -29 -28 -16 0 -22 11 -32 55 -8 39 -11 46 -12
25 -1 -17 3 -45 8 -63 12 -39 0 -42 -34 -7 -37 36 -34 103 5 173 17 28 34 52
38 52 4 0 15 -24 25 -53z m4282 -9 c55 -47 97 -139 58 -123 -10 4 -49 11 -87
16 -77 10 -116 35 -116 76 0 20 3 23 28 17 15 -4 38 -11 52 -16 16 -6 21 -6
15 0 -5 5 -27 15 -48 22 -31 10 -36 14 -26 26 21 26 85 17 124 -18z m-219 -55
c-4 -9 -9 -38 -11 -63 l-5 -45 14 53 c16 62 22 70 44 56 36 -23 34 -54 -11
-172 l-23 -62 -22 22 c-55 59 -69 162 -27 203 28 29 50 33 41 8z m-3801 -65
c-12 -41 -55 -98 -88 -118 -37 -23 -90 -26 -106 -6 -10 12 -5 16 26 26 21 7
42 16 47 21 5 4 -13 1 -39 -7 -59 -17 -73 -8 -51 34 17 33 61 51 126 53 19 0
44 4 55 9 32 14 37 12 30 -12z m-372 -127 c39 -81 44 -109 27 -142 -17 -31
-37 -22 -54 24 -13 33 -15 35 -12 12 3 -16 8 -38 11 -47 10 -25 -9 -22 -42 6
-24 21 -28 32 -28 78 0 50 36 149 53 147 4 0 24 -35 45 -78z m1335 7 l3 -48
890 0 889 0 0 50 0 51 88 -3 87 -3 0 -270 0 -270 -87 -3 -88 -3 0 136 0 135
-365 0 -365 0 0 -970 0 -970 185 0 186 0 -3 -62 -3 -63 -527 -3 -528 -2 0 65
0 65 180 0 180 0 0 970 0 970 -360 0 -359 0 -3 -132 -3 -133 -87 -3 -88 -3 0
276 0 276 88 -3 87 -3 3 -47z m3142 37 c33 -17 66 -57 86 -104 19 -47 18 -65
-3 -56 -10 5 -49 16 -88 26 -75 20 -105 44 -105 86 0 28 12 26 85 -9 l40 -19
-25 20 c-14 11 -40 26 -59 32 -32 11 -33 13 -16 25 24 18 49 18 85 -1z m-180
-47 c0 -2 -7 -21 -15 -43 -8 -22 -14 -49 -14 -60 0 -11 8 4 18 33 23 67 29 72
52 43 27 -33 24 -55 -16 -127 -19 -34 -35 -69 -35 -78 0 -32 -22 -15 -45 37
-35 74 -33 130 4 168 24 24 52 38 51 27z m-4039 -76 c-31 -107 -138 -189 -180
-139 -9 11 -3 18 30 32 56 26 60 39 4 15 -59 -25 -65 -25 -65 4 0 36 49 71
116 85 33 6 66 16 74 21 24 16 29 12 21 -18z m-391 -103 c0 -6 18 -36 41 -68
42 -60 53 -108 29 -136 -19 -23 -25 -19 -46 26 -10 23 -20 37 -22 31 -2 -6 4
-25 13 -42 20 -38 14 -47 -20 -32 -55 25 -68 123 -29 206 16 32 34 40 34 15z
m4720 -25 c35 -30 64 -82 74 -133 5 -29 4 -32 -12 -26 -9 4 -46 19 -82 32 -35
13 -71 29 -78 36 -19 15 -33 54 -26 71 7 17 37 8 88 -25 30 -20 30 -20 -4 10
-19 17 -40 31 -47 31 -7 0 -13 4 -13 8 0 32 60 29 100 -4z m-214 -64 c-25 -64
-19 -71 10 -10 l26 55 19 -24 c28 -35 24 -60 -26 -135 -25 -38 -45 -73 -45
-77 0 -23 -20 -5 -34 31 -33 84 -15 180 38 200 29 11 31 7 12 -40z m-4221 -76
c-22 -57 -75 -104 -119 -104 -49 0 -50 10 -2 40 24 16 47 33 51 39 3 6 -15 -2
-41 -19 -58 -37 -74 -38 -74 -5 0 36 37 69 101 90 30 10 63 24 74 32 18 12 20
11 23 -8 2 -12 -4 -41 -13 -65z m-307 -158 c33 -39 42 -58 42 -87 0 -20 -6
-42 -14 -48 -12 -10 -20 -3 -45 41 -35 61 -41 55 -10 -9 12 -24 19 -46 17 -49
-12 -11 -58 18 -73 45 -18 36 -20 122 -3 169 l13 34 15 -23 c8 -13 34 -46 58
-73z m4798 65 c39 -24 74 -94 74 -150 l0 -42 -27 19 c-16 10 -43 25 -62 32
-59 23 -91 58 -91 96 0 19 3 34 8 34 9 0 46 -24 83 -54 14 -12 3 0 -24 26 -41
38 -46 47 -30 51 32 8 37 7 69 -12z m-202 -64 c-13 -23 -24 -46 -23 -52 0 -5
7 4 16 20 19 36 43 65 54 65 16 0 29 -40 23 -65 -4 -15 -27 -50 -51 -78 -25
-29 -49 -61 -53 -72 -7 -18 -10 -16 -24 17 -34 78 -11 188 42 206 40 14 43 6
16 -41z m-4368 -101 c-29 -59 -73 -91 -113 -81 l-26 6 45 42 c24 23 35 35 24
26 -56 -42 -78 -51 -87 -38 -5 8 -9 19 -9 25 0 25 47 68 107 96 35 17 67 36
71 42 4 6 8 -6 10 -28 2 -26 -5 -55 -22 -90z m-222 -216 c11 -24 0 -70 -18
-70 -7 0 -26 18 -41 40 -15 22 -29 40 -32 40 -5 0 22 -48 43 -77 16 -22 15
-23 -4 -23 -34 0 -51 10 -73 47 -23 36 -30 114 -16 166 l7 27 63 -66 c34 -36
66 -74 71 -84z m4868 100 c21 -29 44 -129 35 -153 -5 -14 -14 -11 -59 17 -84
54 -120 91 -116 123 5 39 22 39 69 -4 37 -32 40 -33 21 -9 -13 16 -32 36 -44
45 -21 14 -21 15 -2 22 26 9 73 -11 96 -41z m-220 3 c-35 -51 -34 -58 1 -18
l35 40 12 -27 c19 -40 6 -66 -65 -140 -68 -72 -67 -72 -80 3 -14 77 35 169 90
169 l26 0 -19 -27z m-4442 -26 c0 -56 -28 -134 -57 -156 -15 -13 -40 -21 -62
-21 l-36 1 25 22 c48 44 65 71 21 34 -25 -20 -48 -37 -53 -37 -4 0 -10 11 -14
25 -8 31 17 71 58 93 16 10 46 29 67 44 47 35 51 34 51 -5z m-252 -288 c33
-27 42 -43 42 -67 0 -47 -17 -48 -63 -6 -41 39 -35 23 12 -28 l25 -28 -35 0
c-39 0 -70 26 -88 73 -11 29 -15 139 -6 149 3 3 21 -9 39 -26 18 -17 52 -47
74 -67z m232 26 c0 -58 -29 -128 -58 -144 -12 -6 -33 -11 -47 -11 l-27 0 36
42 c47 54 47 70 0 18 -46 -51 -64 -52 -64 -3 0 30 7 42 41 72 22 20 55 50 72
66 38 36 47 28 47 -40z m4500 66 c0 -5 -7 -14 -15 -21 -9 -7 -25 -27 -37 -44
-17 -25 -12 -22 21 12 48 48 58 51 67 18 7 -30 -17 -78 -51 -100 -15 -10 -44
-33 -65 -52 l-39 -35 -6 44 c-13 87 39 187 99 187 14 0 26 -4 26 -9z m168 -7
c42 -29 67 -106 56 -175 l-6 -38 -51 42 c-109 90 -124 115 -97 157 8 12 16 8
51 -25 23 -22 37 -31 31 -20 -6 11 -20 29 -31 39 -12 11 -21 23 -21 28 0 14
44 9 68 -8z m-4658 -311 c0 -80 -41 -143 -93 -143 l-30 0 20 23 c11 12 26 33
33 47 8 15 -3 8 -28 -20 l-40 -45 -11 28 c-15 40 5 83 62 130 25 20 49 47 53
60 7 21 8 21 20 -8 7 -16 13 -49 14 -72z m4490 81 c0 -3 -14 -17 -30 -31 -17
-14 -36 -35 -42 -47 -7 -12 8 -4 36 22 49 45 66 47 66 6 0 -39 -16 -60 -72
-94 -29 -18 -63 -41 -75 -53 l-23 -20 0 57 c0 68 18 115 55 144 25 20 85 31
85 16z m150 -19 c40 -21 65 -89 57 -157 -4 -28 -10 -55 -14 -58 -11 -10 -130
121 -138 150 -3 15 0 33 9 45 15 20 16 19 46 -15 l32 -35 -21 36 c-28 48 -19
59 29 34z m-4830 -125 c12 -23 13 -67 1 -74 -5 -3 -30 13 -57 37 -38 32 -44
35 -26 13 13 -16 32 -36 43 -44 23 -16 16 -32 -14 -32 -57 0 -107 76 -107 164
l0 54 75 -49 c41 -27 79 -58 85 -69z m220 -147 c8 -37 8 -63 0 -92 -11 -42
-50 -81 -81 -81 -16 0 -16 4 6 43 35 60 31 70 -5 13 -26 -40 -33 -46 -45 -36
-29 24 -18 76 29 133 24 29 49 64 56 77 15 29 25 15 40 -57z m4430 48 c0 -5
-16 -19 -35 -32 -19 -13 -37 -29 -39 -36 -3 -7 15 3 40 22 49 38 64 38 64 1 0
-36 -34 -71 -92 -96 -29 -12 -63 -31 -75 -43 l-23 -20 0 27 c0 97 59 186 124
186 20 0 36 -4 36 -9z m157 -36 c43 -30 53 -141 19 -204 l-14 -25 -15 30 c-8
16 -27 40 -42 54 -52 48 -71 114 -40 140 9 7 17 11 19 9 2 -2 15 -22 30 -43
30 -45 35 -36 6 12 -11 18 -20 35 -20 37 0 11 37 4 57 -10z m-4846 -58 c60
-26 102 -69 97 -101 -5 -31 -22 -29 -74 9 l-49 36 48 -44 c47 -43 51 -57 15
-57 -62 0 -128 90 -128 174 0 37 1 38 18 23 9 -8 42 -26 73 -40z m325 -220 c8
-54 -15 -113 -51 -129 -34 -15 -38 -8 -20 37 22 51 13 55 -10 5 -20 -44 -26
-48 -45 -24 -23 27 -15 72 22 126 20 29 41 64 48 77 l13 25 19 -37 c10 -20 21
-56 24 -80z m4308 84 c3 -5 -12 -20 -34 -35 -53 -35 -50 -39 8 -9 51 26 61 20
48 -33 -6 -23 -69 -64 -98 -64 -8 0 -31 -9 -53 -20 -22 -11 -41 -20 -43 -20
-2 0 -1 17 3 37 10 53 40 107 72 132 28 21 87 28 97 12z m137 -41 c5 0 18 -15
29 -32 26 -43 25 -110 0 -167 l-21 -44 -49 78 c-52 82 -60 117 -36 151 15 19
15 19 30 -1 8 -11 22 -38 30 -60 8 -22 15 -33 15 -25 0 8 -8 35 -19 59 -24 52
-24 55 -4 47 9 -3 20 -6 25 -6z m-4702 -75 c30 -10 65 -28 78 -41 23 -23 32
-74 13 -74 -15 0 -71 29 -94 49 -12 10 -16 11 -12 3 5 -8 28 -26 52 -42 49
-31 47 -40 -6 -40 -28 0 -43 8 -68 33 -35 36 -62 94 -62 132 0 24 1 25 23 11
12 -7 46 -22 76 -31z m322 -129 c10 -23 19 -64 19 -94 0 -43 -5 -57 -25 -77
-13 -14 -31 -25 -39 -25 -13 0 -13 4 0 35 7 19 14 42 13 52 0 10 -9 -6 -21
-36 l-20 -53 -20 20 c-11 11 -20 32 -20 47 0 33 73 185 86 178 4 -3 17 -24 27
-47z m4157 20 c23 -12 23 -13 -18 -31 -59 -27 -59 -37 0 -14 l50 19 0 -28 c0
-40 -29 -63 -108 -83 -37 -9 -75 -20 -84 -24 -25 -10 -23 9 6 70 25 54 47 78
86 94 33 13 41 13 68 -3z m162 -84 c34 -42 21 -141 -26 -198 -22 -28 -23 -28
-24 -7 0 12 -16 51 -35 86 -40 73 -43 95 -16 128 23 29 29 24 52 -43 10 -29
18 -44 18 -33 0 11 -6 38 -14 60 -8 22 -15 41 -15 42 0 0 9 -1 20 -4 11 -3 29
-17 40 -31z m-4635 -21 c3 -5 31 -15 63 -21 75 -16 111 -35 123 -66 18 -50 -1
-55 -75 -19 -41 21 -46 22 -26 5 14 -11 39 -25 57 -32 25 -9 30 -15 21 -25
-30 -36 -117 4 -155 72 -27 50 -39 95 -25 95 6 0 13 -4 17 -9z m426 -143 c27
-52 25 -125 -3 -155 -30 -32 -50 -31 -38 3 6 14 9 40 9 57 -2 27 -2 28 -6 7
-7 -44 -24 -90 -33 -90 -16 0 -40 44 -40 71 0 15 11 52 25 83 14 31 25 66 25
78 0 21 0 21 21 2 12 -10 30 -36 40 -56z m3954 28 c17 -12 16 -14 -21 -26 -49
-16 -70 -33 -23 -20 50 15 69 12 69 -8 0 -37 -44 -63 -119 -73 -39 -4 -81 -13
-92 -20 -19 -10 -20 -9 -14 13 18 57 59 108 110 136 28 16 68 15 90 -2z m93
-117 l12 -44 -5 48 c-5 53 8 62 40 27 39 -43 14 -162 -44 -214 -21 -19 -21
-19 -21 6 0 14 -11 51 -25 82 -29 66 -31 93 -9 124 22 32 37 23 52 -29z
m-4356 -8 c13 -6 50 -13 82 -16 47 -5 65 -13 88 -35 53 -53 32 -73 -47 -45
-21 8 -41 12 -43 10 -2 -2 19 -12 47 -22 58 -20 63 -29 25 -44 -55 -20 -136
35 -170 117 -21 49 -20 50 18 35z m458 -151 c14 -51 7 -83 -23 -113 l-22 -22
-6 50 c-5 41 -6 44 -8 15 -1 -19 -6 -42 -11 -50 -9 -13 -14 -11 -35 13 -30 34
-31 47 -5 129 11 34 20 72 20 83 1 34 77 -55 90 -105z m3665 78 c33 -15 32
-26 -2 -34 -59 -12 -68 -22 -15 -17 47 5 52 4 52 -14 0 -40 -35 -57 -133 -63
-51 -4 -93 -5 -95 -4 -8 5 29 62 60 91 51 49 89 61 133 41z m102 -141 l12 -52
-5 59 -5 59 23 -15 c50 -33 48 -106 -5 -184 -37 -56 -57 -66 -57 -31 0 13 -7
44 -15 67 -22 61 -19 116 6 141 26 26 31 21 46 -44z m-3665 -44 c59 -62 74
-144 33 -183 l-25 -23 -1 49 c-1 27 -3 38 -6 24 -12 -78 -29 -91 -59 -45 -14
21 -15 38 -9 88 4 34 8 78 9 99 1 41 12 40 58 -9z m-284 21 c27 -6 62 -38 62
-59 0 -18 -54 -21 -95 -5 -14 5 -24 6 -21 1 3 -5 29 -15 58 -21 l52 -13 -23
-18 c-30 -24 -52 -24 -102 1 -37 20 -99 90 -99 114 0 11 115 11 168 0z m3710
-30 c32 -22 27 -34 -15 -35 -21 0 -47 -4 -58 -9 -12 -4 6 -6 43 -3 50 5 62 3
62 -9 0 -23 -43 -57 -75 -59 -66 -5 -165 2 -165 11 0 17 69 87 103 104 41 20
77 20 105 0z m83 -147 l6 -52 2 53 c1 56 11 65 35 30 33 -47 11 -127 -52 -186
l-37 -35 -7 44 c-23 136 -22 156 6 184 15 15 30 24 34 20 4 -3 9 -30 13 -58z
m-3343 -21 c62 -57 81 -129 45 -169 -18 -19 -18 -18 -30 29 l-11 49 -1 -52
c-1 -59 -10 -65 -47 -28 -23 23 -24 30 -22 124 3 110 0 107 66 47z m3104 -12
c21 -19 16 -34 -10 -28 -9 3 -35 1 -57 -5 -39 -9 -39 -9 23 -10 68 -1 78 -13
41 -47 -22 -20 -47 -21 -164 -7 l-70 8 45 45 c67 67 146 85 192 44z m-3357 2
c12 -8 25 -24 28 -35 5 -19 1 -21 -51 -22 l-57 -1 54 -12 c53 -11 53 -11 32
-30 -46 -42 -152 0 -201 79 l-19 30 96 3 c71 2 102 -1 118 -12z m411 -121 c72
-43 112 -123 85 -174 -17 -30 -26 -26 -39 17 l-11 37 6 -42 c4 -41 3 -43 -21
-43 -40 0 -58 38 -65 140 -3 50 -4 90 -2 90 2 0 23 -11 47 -25z m3006 -27 l4
-53 8 53 c8 51 9 52 27 36 23 -21 25 -83 4 -123 -13 -27 -91 -101 -104 -101
-3 0 -7 42 -9 94 -2 81 0 96 19 119 32 42 47 35 51 -25z m-245 -10 c13 -12 23
-24 23 -28 0 -3 -30 -5 -67 -4 l-68 3 63 -8 c34 -4 65 -10 67 -13 10 -10 -6
-35 -31 -48 -26 -14 -27 -14 -167 20 l-49 12 24 25 c58 62 160 83 205 41z
m-2976 -29 c29 -29 19 -43 -37 -50 l-49 -6 54 -1 54 -2 -23 -25 c-43 -46 -118
-31 -188 38 l-43 42 63 11 c104 18 145 17 169 -7z m436 -80 c60 -37 96 -137
60 -167 -10 -8 -17 1 -31 39 -9 28 -20 49 -23 46 -2 -3 0 -14 5 -24 5 -10 12
-33 15 -50 7 -36 -6 -43 -43 -23 -28 15 -39 42 -49 117 -5 38 -12 76 -16 86
-7 15 -4 16 21 7 16 -6 43 -20 61 -31z m2591 -46 l-6 -58 17 55 17 55 18 -27
c36 -55 -10 -145 -94 -188 l-37 -19 3 42 c2 23 5 66 7 95 3 38 11 60 27 77 40
43 54 33 48 -32z m-253 22 c29 -28 33 -50 8 -41 -9 4 -38 9 -63 11 -25 2 -36
2 -25 -1 118 -29 114 -27 88 -56 -23 -26 -80 -23 -145 7 -29 14 -62 25 -72 25
-18 0 -18 1 -1 19 53 60 167 80 210 36z m-2570 -55 c22 -25 16 -32 -43 -47
l-47 -12 53 5 c58 5 65 -4 26 -35 -48 -38 -138 -16 -198 48 l-30 31 30 1 c16
0 45 6 64 13 56 22 124 20 145 -4z m420 -19 c75 -34 119 -107 96 -159 l-12
-26 -19 39 c-10 22 -25 49 -34 60 -13 15 -12 10 3 -20 35 -72 36 -85 7 -85
-35 0 -62 30 -76 82 -7 24 -18 62 -25 86 -15 50 -6 53 60 23z m1924 -26 c26
-13 41 -33 41 -55 0 -4 -21 -2 -47 6 -25 8 -53 14 -62 13 -9 0 9 -8 39 -17 66
-21 76 -50 22 -66 -28 -8 -42 -4 -102 28 -38 20 -76 36 -85 36 -31 0 -13 22
38 45 59 28 115 32 156 10z m277 -42 c-15 -62 -15 -67 -1 -38 8 17 14 36 15
43 0 22 17 13 29 -16 21 -51 -24 -123 -101 -163 -49 -25 -60 -24 -49 4 5 12
12 50 16 84 8 73 34 113 72 113 22 0 24 -3 19 -27z m-1952 -36 c48 -27 79 -66
79 -102 0 -49 -19 -49 -47 -1 -14 25 -31 48 -37 52 -6 3 0 -11 14 -32 13 -22
27 -49 31 -61 7 -20 4 -23 -22 -23 -36 0 -77 43 -87 92 -4 18 -16 50 -27 72
l-20 39 39 -8 c21 -3 56 -16 77 -28z m-470 7 c9 -4 21 -15 26 -25 9 -16 4 -20
-37 -34 l-48 -15 49 5 c48 5 48 5 34 -18 -37 -55 -111 -58 -192 -6 -50 31 -58
49 -23 49 12 1 47 12 77 25 56 25 86 30 114 19z m1937 -33 c16 -16 29 -36 29
-45 0 -13 -7 -12 -46 5 -25 12 -48 18 -51 16 -2 -3 11 -10 31 -17 19 -6 40
-18 47 -27 11 -13 10 -18 -6 -30 -30 -22 -77 -10 -141 36 -32 23 -64 41 -71
41 -8 0 -11 5 -8 10 13 21 71 38 128 39 52 1 62 -2 88 -28z m-1258 -27 c49
-17 107 -72 107 -102 0 -9 -5 -24 -10 -32 -9 -13 -12 -13 -21 3 -5 9 -22 29
-36 45 -24 25 -24 25 -9 2 44 -68 48 -80 30 -87 -39 -15 -68 11 -115 100 l-47
87 27 0 c15 0 48 -7 74 -16z m1007 -19 c31 -16 50 -43 50 -70 0 -13 -8 -11
-47 10 -67 35 -79 31 -15 -6 43 -24 51 -33 42 -44 -30 -36 -76 -26 -138 29
-21 20 -52 42 -68 50 l-28 15 34 15 c45 20 133 20 170 1z m520 3 c0 -7 -9 -32
-20 -55 -10 -24 -17 -43 -14 -43 3 0 16 23 29 51 21 47 24 49 34 31 19 -36 12
-70 -21 -108 -32 -36 -97 -73 -129 -74 -15 0 -15 4 -3 43 8 23 19 60 24 82 5
23 19 51 30 63 22 24 70 30 70 10z m-1268 -28 c4 0 23 -14 43 -31 28 -25 35
-38 35 -67 l0 -36 -42 39 -42 40 33 -42 c34 -45 34 -63 -2 -63 -35 0 -64 26
-108 96 -23 35 -46 65 -52 65 -7 1 2 4 18 8 17 4 48 3 70 -1 22 -4 43 -7 47
-8z m473 -1 c53 -14 85 -45 85 -81 l0 -28 -42 30 c-22 16 -46 30 -51 30 -6 0
8 -13 31 -29 50 -37 55 -46 37 -61 -29 -24 -78 -3 -138 60 -32 33 -63 60 -70
61 -17 2 64 27 88 28 11 1 38 -4 60 -10z m-1174 -18 c29 -23 24 -29 -43 -52
-29 -10 -44 -18 -33 -18 11 0 38 6 60 14 48 18 45 17 45 4 0 -6 -13 -24 -29
-40 -38 -37 -94 -39 -168 -4 -51 23 -69 45 -38 45 8 0 44 16 81 35 75 40 93
42 125 16z m930 8 c51 -17 89 -57 89 -93 l0 -29 -22 20 c-13 11 -36 29 -53 38
-22 14 -19 9 13 -19 48 -43 53 -63 17 -72 -31 -8 -64 13 -102 63 -15 20 -40
49 -56 64 l-28 28 23 4 c44 8 85 7 119 -4z m804 -49 c4 -6 -5 -31 -20 -57 -20
-37 -22 -43 -6 -29 10 10 25 31 32 47 14 36 30 26 31 -19 1 -39 -21 -74 -64
-100 -32 -20 -118 -45 -126 -37 -2 2 3 14 11 27 8 12 22 46 31 73 19 56 32 76
61 93 25 14 42 15 50 2z m-1494 -40 c28 -15 24 -27 -18 -49 -45 -24 -37 -27
12 -7 30 13 35 13 35 1 0 -8 -10 -26 -23 -41 -33 -38 -114 -45 -183 -15 l-48
22 39 23 c22 12 58 35 79 49 41 29 75 34 107 17z m1259 -36 c0 -11 -23 -50
-43 -71 -11 -13 -16 -23 -10 -23 6 0 23 18 38 40 20 30 31 37 36 28 39 -60
-56 -147 -160 -148 -41 0 -43 1 -29 18 9 9 28 42 43 72 37 75 52 90 92 90 18
0 33 -3 33 -6z m-1005 -28 c18 -13 16 -16 -30 -45 -56 -36 -53 -41 6 -10 23
11 43 18 46 15 12 -11 -25 -63 -57 -79 -39 -20 -114 -18 -162 4 l-28 12 23 16
c12 8 46 35 75 58 56 46 93 54 127 29z m752 -22 c4 -10 -10 -32 -38 -61 -39
-41 -41 -44 -11 -24 18 13 40 34 48 47 19 28 34 23 34 -10 0 -52 -61 -99 -143
-111 -75 -11 -83 -3 -45 48 18 25 41 58 50 76 25 46 92 68 105 35z m-516 -4
c28 -15 24 -26 -23 -60 -50 -37 -38 -40 15 -4 21 14 41 23 45 20 11 -11 -12
-59 -38 -78 -33 -24 -117 -34 -162 -19 l-35 12 66 63 c80 77 96 85 132 66z
m266 -17 c5 -12 -7 -28 -38 -56 l-44 -40 53 37 52 36 0 -29 c0 -33 -45 -77
-88 -87 -15 -3 -33 -7 -40 -10 -7 -2 -33 -1 -57 3 l-45 6 32 35 c99 108 116
122 142 122 16 0 29 -7 33 -17z"/>
<path d="M3310 5472 c0 -4 16 -24 37 -43 l36 -34 -33 43 c-34 43 -40 48 -40
34z"/>
<path d="M4798 5013 c6 -2 18 -2 25 0 6 3 1 5 -13 5 -14 0 -19 -2 -12 -5z"/>
<path d="M1311 4804 c0 -11 3 -14 6 -6 3 7 2 16 -1 19 -3 4 -6 -2 -5 -13z"/>
<path d="M891 4154 c0 -11 3 -14 6 -6 3 7 2 16 -1 19 -3 4 -6 -2 -5 -13z"/>
<path d="M1031 2454 c0 -11 3 -14 6 -6 3 7 2 16 -1 19 -3 4 -6 -2 -5 -13z"/>
</g>
</svg>
