<svg id="Layer_1" data-name="Layer 1" xmlns="http://www.w3.org/2000/svg" xmlns:xlink="http://www.w3.org/1999/xlink" viewBox="0 0 468 468"><defs><style>.cls-1,.cls-2{fill:none;}.cls-1{clip-rule:evenodd;}.cls-2{fill-rule:evenodd;}.cls-3,.cls-4{fill:#4a4a4a;}.cls-4{opacity:0.3;}.cls-5{clip-path:url(#clip-path);}.cls-6{clip-path:url(#clip-path-2);}.cls-7{clip-path:url(#clip-path-4);}</style><clipPath id="clip-path"><path class="cls-1" d="M-1071.34-4752.49a13.25,13.25,0,0,1,13.28-13.2,13.25,13.25,0,0,1,13.28,13.2,13.25,13.25,0,0,1-13.28,13.2A13.26,13.26,0,0,1-1071.34-4752.49Zm-2,0a15.26,15.26,0,0,0,15.28,15.2,15.25,15.25,0,0,0,15.28-15.2,15.25,15.25,0,0,0-15.28-15.2A15.25,15.25,0,0,0-1073.34-4752.49Zm21,0a5.75,5.75,0,0,0-5.76-5.73,5.75,5.75,0,0,0-5.76,5.73,5.75,5.75,0,0,0,5.76,5.73A5.75,5.75,0,0,0-1052.31-4752.49Zm-2,0a3.75,3.75,0,0,1-3.76,3.73,3.75,3.75,0,0,1-3.76-3.73,3.75,3.75,0,0,1,3.76-3.73A3.75,3.75,0,0,1-1054.31-4752.49Zm-39-35.2h70.55v70.4h-70.55Z"/></clipPath><clipPath id="clip-path-2"><path class="cls-1" d="M-1072.34-4752.49a14.26,14.26,0,0,0,14.28,14.2,14.25,14.25,0,0,0,14.28-14.2,14.25,14.25,0,0,0-14.28-14.2A14.25,14.25,0,0,0-1072.34-4752.49Zm19,0a4.75,4.75,0,0,1-4.76,4.73,4.75,4.75,0,0,1-4.76-4.73,4.75,4.75,0,0,1,4.76-4.73A4.75,4.75,0,0,1-1053.31-4752.49Z"/></clipPath><clipPath id="clip-path-4"><path class="cls-1" d="M-499.07-4241.57a23.76,23.76,0,0,0-23.79,23.67v4.73h47.58v-4.73A23.76,23.76,0,0,0-499.07-4241.57Zm-13.46,18.94a14.3,14.3,0,0,1,13.46-9.47,14.29,14.29,0,0,1,13.46,9.47Z"/></clipPath></defs><title>users learning</title><path class="cls-3" d="M172.72,393.23A69.51,69.51,0,0,0,187.2,351a70.2,70.2,0,1,0-140.4,0,69.53,69.53,0,0,0,14.48,42.23C38.43,410.31,23.4,437.33,23.4,468H70.2a46.8,46.8,0,1,1,93.6,0h46.8C210.6,437.33,195.57,410.31,172.72,393.23ZM83.35,351A33.65,33.65,0,1,1,117,384.65,33.7,33.7,0,0,1,83.35,351Z"/><path class="cls-3" d="M405.64,393.23A69.51,69.51,0,0,0,420.12,351a70.2,70.2,0,1,0-140.4,0,69.53,69.53,0,0,0,14.48,42.23c-22.86,17.08-37.88,44.1-37.88,74.77h46.8a46.8,46.8,0,1,1,93.6,0h46.8C443.52,437.33,428.49,410.31,405.64,393.23ZM316.27,351a33.65,33.65,0,1,1,33.65,33.65A33.7,33.7,0,0,1,316.27,351Z"/><path class="cls-3" d="M23.4,0V234H444.6V0ZM408.09,199.33H59.91V34.67H408.09Z"/><rect class="cls-4" x="84.32" y="61.61" width="298.49" height="22.15"/><rect class="cls-4" x="233.57" y="105.92" width="149.25" height="22.15"/><rect class="cls-4" x="323.12" y="150.23" width="59.7" height="22.15"/></svg>