<svg id="Layer_1" data-name="Layer 1" xmlns="http://www.w3.org/2000/svg" xmlns:xlink="http://www.w3.org/1999/xlink" viewBox="0 0 468 468"><defs><style>.cls-1,.cls-2{fill:none;}.cls-1{clip-rule:evenodd;}.cls-2{fill-rule:evenodd;}.cls-3,.cls-4{fill:#4a4a4a;}.cls-4{opacity:0.3;}.cls-5{clip-path:url(#clip-path);}.cls-6{clip-path:url(#clip-path-2);}.cls-7{clip-path:url(#clip-path-4);}</style><clipPath id="clip-path"><path class="cls-1" d="M-85.34-4752.49a13.25,13.25,0,0,1,13.28-13.2,13.25,13.25,0,0,1,13.28,13.2,13.25,13.25,0,0,1-13.28,13.2A13.26,13.26,0,0,1-85.34-4752.49Zm-2,0a15.26,15.26,0,0,0,15.28,15.2,15.25,15.25,0,0,0,15.28-15.2,15.25,15.25,0,0,0-15.28-15.2A15.25,15.25,0,0,0-87.34-4752.49Zm21,0a5.75,5.75,0,0,0-5.76-5.73,5.75,5.75,0,0,0-5.76,5.73,5.75,5.75,0,0,0,5.76,5.73A5.75,5.75,0,0,0-66.31-4752.49Zm-2,0a3.75,3.75,0,0,1-3.76,3.73,3.75,3.75,0,0,1-3.76-3.73,3.75,3.75,0,0,1,3.76-3.73A3.75,3.75,0,0,1-68.31-4752.49Zm-39-35.2h70.55v70.4h-70.55Z"/></clipPath><clipPath id="clip-path-2"><path class="cls-1" d="M-86.34-4752.49a14.26,14.26,0,0,0,14.28,14.2,14.25,14.25,0,0,0,14.28-14.2,14.25,14.25,0,0,0-14.28-14.2A14.25,14.25,0,0,0-86.34-4752.49Zm19,0a4.75,4.75,0,0,1-4.76,4.73,4.75,4.75,0,0,1-4.76-4.73,4.75,4.75,0,0,1,4.76-4.73A4.75,4.75,0,0,1-67.31-4752.49Z"/></clipPath><clipPath id="clip-path-4"><path class="cls-1" d="M486.93-4241.57a23.76,23.76,0,0,0-23.79,23.67v4.73h47.58v-4.73A23.76,23.76,0,0,0,486.93-4241.57Zm-13.46,18.94a14.3,14.3,0,0,1,13.46-9.47,14.29,14.29,0,0,1,13.46,9.47Z"/></clipPath></defs><title>2 users</title><path class="cls-3" d="M165.77,210.32A94.73,94.73,0,1,0,71,115.59,94.83,94.83,0,0,0,165.77,210.32Zm0-142.09a47.36,47.36,0,1,1-47.36,47.36A47.42,47.42,0,0,1,165.77,68.23Z"/><path class="cls-4" d="M349.59,281.36a71,71,0,1,0-71-71A71.12,71.12,0,0,0,349.59,281.36Zm0-104.85a33.8,33.8,0,1,1-33.8,33.8A33.83,33.83,0,0,1,349.59,176.52Z"/><path class="cls-3" d="M303.6,317.45l-.39.18C273.39,267.21,222.91,234,165.77,234,74.38,234,0,319,0,423.46v23.68H331.3C334,372.25,310.86,329,303.6,317.45ZM49,399.77c9.44-67.11,58.21-118.41,116.77-118.41s107.33,51.29,116.77,118.41Z"/><path class="cls-4" d="M349.59,305a115.15,115.15,0,0,0-46.21,9.89c4.19,6.71,12,21.16,18.42,43.56a68.19,68.19,0,0,1,27.79-6.09,71.19,71.19,0,0,1,67,47.36H329.84a317.87,317.87,0,0,1,1.7,47.36H468V423.46A118.55,118.55,0,0,0,349.59,305Z"/></svg>