<svg id="Layer_1" data-name="Layer 1" xmlns="http://www.w3.org/2000/svg" xmlns:xlink="http://www.w3.org/1999/xlink" viewBox="0 0 468 468"><defs><style>.cls-1,.cls-2{fill:none;}.cls-1{clip-rule:evenodd;}.cls-2{fill-rule:evenodd;}.cls-3,.cls-4{fill:#4a4a4a;}.cls-4{opacity:0.3;}.cls-5{clip-path:url(#clip-path);}.cls-6{clip-path:url(#clip-path-2);}</style><clipPath id="clip-path"><path class="cls-1" d="M406.66-5240.49a13.25,13.25,0,0,1,13.28-13.2,13.25,13.25,0,0,1,13.28,13.2,13.25,13.25,0,0,1-13.28,13.2A13.26,13.26,0,0,1,406.66-5240.49Zm-2,0a15.26,15.26,0,0,0,15.28,15.2,15.25,15.25,0,0,0,15.28-15.2,15.25,15.25,0,0,0-15.28-15.2A15.25,15.25,0,0,0,404.66-5240.49Zm21,0a5.75,5.75,0,0,0-5.76-5.73,5.75,5.75,0,0,0-5.76,5.73,5.75,5.75,0,0,0,5.76,5.73A5.75,5.75,0,0,0,425.69-5240.49Zm-2,0a3.75,3.75,0,0,1-3.76,3.73,3.75,3.75,0,0,1-3.76-3.73,3.75,3.75,0,0,1,3.76-3.73A3.75,3.75,0,0,1,423.69-5240.49Zm-39-35.2h70.55v70.4H384.66Z"/></clipPath><clipPath id="clip-path-2"><path class="cls-1" d="M405.66-5240.49a14.26,14.26,0,0,0,14.28,14.2,14.25,14.25,0,0,0,14.28-14.2,14.25,14.25,0,0,0-14.28-14.2A14.25,14.25,0,0,0,405.66-5240.49Zm19,0a4.75,4.75,0,0,1-4.76,4.73,4.75,4.75,0,0,1-4.76-4.73,4.75,4.75,0,0,1,4.76-4.73A4.75,4.75,0,0,1,424.69-5240.49Z"/></clipPath></defs><title>teacher</title><path class="cls-3" d="M187.2,187.2A70.2,70.2,0,1,0,117,257.4,70.28,70.28,0,0,0,187.2,187.2ZM82,187.2a35,35,0,1,1,35,35A35,35,0,0,1,82,187.2Z"/><rect class="cls-4" width="468" height="46.8"/><rect class="cls-4" x="234" y="93.6" width="234" height="46.8"/><rect class="cls-4" x="374.4" y="187.2" width="93.6" height="46.8"/><path class="cls-3" d="M318.39,210.12l-112.5,112.5C184.41,297.26,152.75,280.8,117,280.8A117.14,117.14,0,0,0,0,397.8V468H234V397.8c0-11.2-2.08-21.82-5-32.08L351.48,243.21ZM187.2,421.2H46.8V397.8a70.2,70.2,0,1,1,140.4,0Z"/></svg>