<svg id="Layer_1" data-name="Layer 1" xmlns="http://www.w3.org/2000/svg" xmlns:xlink="http://www.w3.org/1999/xlink" viewBox="0 0 468 468"><defs><style>.cls-1,.cls-2{fill:none;}.cls-1{clip-rule:evenodd;}.cls-2{fill-rule:evenodd;}.cls-3{clip-path:url(#clip-path);}.cls-4{clip-path:url(#clip-path-2);}.cls-5{clip-path:url(#clip-path-4);}.cls-6{fill:#ef3852;}</style><clipPath id="clip-path"><path class="cls-1" d="M-575.34-5240.49a13.25,13.25,0,0,1,13.28-13.2,13.25,13.25,0,0,1,13.28,13.2,13.25,13.25,0,0,1-13.28,13.2A13.26,13.26,0,0,1-575.34-5240.49Zm-2,0a15.26,15.26,0,0,0,15.28,15.2,15.25,15.25,0,0,0,15.28-15.2,15.25,15.25,0,0,0-15.28-15.2A15.25,15.25,0,0,0-577.34-5240.49Zm21,0a5.75,5.75,0,0,0-5.76-5.73,5.75,5.75,0,0,0-5.76,5.73,5.75,5.75,0,0,0,5.76,5.73A5.75,5.75,0,0,0-556.31-5240.49Zm-2,0a3.75,3.75,0,0,1-3.76,3.73,3.75,3.75,0,0,1-3.76-3.73,3.75,3.75,0,0,1,3.76-3.73A3.75,3.75,0,0,1-558.31-5240.49Zm-39-35.2h70.55v70.4h-70.55Z"/></clipPath><clipPath id="clip-path-2"><path class="cls-1" d="M-576.34-5240.49a14.26,14.26,0,0,0,14.28,14.2,14.25,14.25,0,0,0,14.28-14.2,14.25,14.25,0,0,0-14.28-14.2A14.25,14.25,0,0,0-576.34-5240.49Zm19,0a4.75,4.75,0,0,1-4.76,4.73,4.75,4.75,0,0,1-4.76-4.73,4.75,4.75,0,0,1,4.76-4.73A4.75,4.75,0,0,1-557.31-5240.49Z"/></clipPath><clipPath id="clip-path-4"><path class="cls-1" d="M-3.07-4729.57a23.76,23.76,0,0,0-23.79,23.67v4.73H20.72v-4.73A23.76,23.76,0,0,0-3.07-4729.57Zm-13.46,18.94a14.3,14.3,0,0,1,13.46-9.47,14.29,14.29,0,0,1,13.46,9.47Z"/></clipPath></defs><title>calendar</title><path class="cls-6" d="M397.8,70.2V0H351V70.2H117V0H70.2V70.2H0V468H468V70.2Zm23.4,351H46.8V117H421.2Z"/></svg>