<svg id="Layer_1" data-name="Layer 1" xmlns="http://www.w3.org/2000/svg" xmlns:xlink="http://www.w3.org/1999/xlink" viewBox="0 0 468 468"><defs><style>.cls-1,.cls-2{fill:none;}.cls-1{clip-rule:evenodd;}.cls-2,.cls-4{fill-rule:evenodd;}.cls-3,.cls-4{fill:#4a4a4a;}.cls-4{opacity:0.3;}.cls-5{clip-path:url(#clip-path);}.cls-6{clip-path:url(#clip-path-2);}</style><clipPath id="clip-path"><path class="cls-1" d="M406.66-4752.49a13.25,13.25,0,0,1,13.28-13.2,13.25,13.25,0,0,1,13.28,13.2,13.25,13.25,0,0,1-13.28,13.2A13.26,13.26,0,0,1,406.66-4752.49Zm-2,0a15.26,15.26,0,0,0,15.28,15.2,15.25,15.25,0,0,0,15.28-15.2,15.25,15.25,0,0,0-15.28-15.2A15.25,15.25,0,0,0,404.66-4752.49Zm21,0a5.75,5.75,0,0,0-5.76-5.73,5.75,5.75,0,0,0-5.76,5.73,5.75,5.75,0,0,0,5.76,5.73A5.75,5.75,0,0,0,425.69-4752.49Zm-2,0a3.75,3.75,0,0,1-3.76,3.73,3.75,3.75,0,0,1-3.76-3.73,3.75,3.75,0,0,1,3.76-3.73A3.75,3.75,0,0,1,423.69-4752.49Zm-39-35.2h70.55v70.4H384.66Z"/></clipPath><clipPath id="clip-path-2"><path class="cls-1" d="M405.66-4752.49a14.26,14.26,0,0,0,14.28,14.2,14.25,14.25,0,0,0,14.28-14.2,14.25,14.25,0,0,0-14.28-14.2A14.25,14.25,0,0,0,405.66-4752.49Zm19,0a4.75,4.75,0,0,1-4.76,4.73,4.75,4.75,0,0,1-4.76-4.73,4.75,4.75,0,0,1,4.76-4.73A4.75,4.75,0,0,1,424.69-4752.49Z"/></clipPath></defs><title>user mag glass</title><path class="cls-3" d="M189.13,179.41a89.7,89.7,0,1,0-89.7-89.7A89.8,89.8,0,0,0,189.13,179.41Zm0-134.56A44.85,44.85,0,1,1,144.27,89.7,44.9,44.9,0,0,1,189.13,44.85Z"/><path class="cls-3" d="M451.67,429.72l-51-51a88.71,88.71,0,0,0,12.69-45.24,88.19,88.19,0,0,0-104.31-88.23A179.79,179.79,0,0,0,189.17,199C90.24,199,9.76,279.44,9.76,378.36v22.43H265a87.62,87.62,0,0,0,104,9.69L420,461.43a22.42,22.42,0,0,0,31.71-31.71Zm-214.5-73.78H56.48c10.71-63.56,66.14-112.13,132.69-112.13a134.75,134.75,0,0,1,75,23.06C245.8,283.3,234,306.95,234,333.51A88.64,88.64,0,0,0,237.16,355.94Zm86.52,35.56a58,58,0,1,1,58-58A58,58,0,0,1,323.68,391.49Z"/><polygon class="cls-4" points="317.75 325.32 297.42 325.32 297.42 341.63 317.75 341.63 317.75 362.12 334.02 362.12 334.02 341.63 354.35 341.63 354.35 325.32 334.02 325.32 334.02 304.83 317.75 304.83 317.75 325.32"/></svg>