<svg id="Layer_1" data-name="Layer 1" xmlns="http://www.w3.org/2000/svg" xmlns:xlink="http://www.w3.org/1999/xlink" viewBox="0 0 468 468"><defs><style>.cls-1,.cls-2{fill:none;}.cls-1{clip-rule:evenodd;}.cls-2{fill-rule:evenodd;}.cls-3{fill:#12f1fc;}.cls-4{clip-path:url(#clip-path);}.cls-5{clip-path:url(#clip-path-2);}.cls-6{clip-path:url(#clip-path-4);}</style><clipPath id="clip-path"><path class="cls-1" d="M-85.34-5240.49a13.25,13.25,0,0,1,13.28-13.2,13.25,13.25,0,0,1,13.28,13.2,13.25,13.25,0,0,1-13.28,13.2A13.26,13.26,0,0,1-85.34-5240.49Zm-2,0a15.26,15.26,0,0,0,15.28,15.2,15.25,15.25,0,0,0,15.28-15.2,15.25,15.25,0,0,0-15.28-15.2A15.25,15.25,0,0,0-87.34-5240.49Zm21,0a5.75,5.75,0,0,0-5.76-5.73,5.75,5.75,0,0,0-5.76,5.73,5.75,5.75,0,0,0,5.76,5.73A5.75,5.75,0,0,0-66.31-5240.49Zm-2,0a3.75,3.75,0,0,1-3.76,3.73,3.75,3.75,0,0,1-3.76-3.73,3.75,3.75,0,0,1,3.76-3.73A3.75,3.75,0,0,1-68.31-5240.49Zm-39-35.2h70.55v70.4h-70.55Z"/></clipPath><clipPath id="clip-path-2"><path class="cls-1" d="M-86.34-5240.49a14.26,14.26,0,0,0,14.28,14.2,14.25,14.25,0,0,0,14.28-14.2,14.25,14.25,0,0,0-14.28-14.2A14.25,14.25,0,0,0-86.34-5240.49Zm19,0a4.75,4.75,0,0,1-4.76,4.73,4.75,4.75,0,0,1-4.76-4.73,4.75,4.75,0,0,1,4.76-4.73A4.75,4.75,0,0,1-67.31-5240.49Z"/></clipPath><clipPath id="clip-path-4"><path class="cls-1" d="M486.93-4729.57a23.76,23.76,0,0,0-23.79,23.67v4.73h47.58v-4.73A23.76,23.76,0,0,0,486.93-4729.57Zm-13.46,18.94a14.3,14.3,0,0,1,13.46-9.47,14.29,14.29,0,0,1,13.46,9.47Z"/></clipPath></defs><title>grad cap_1</title><path class="cls-3" d="M429.51,348.69H468V163.9l-.29-3.19a19.16,19.16,0,0,0-11.13-15.88L241.82,49.39a19.2,19.2,0,0,0-15.64,0L11.42,144.83a19.24,19.24,0,0,0,0,35.16l81.24,36.1,2.74,1.22v136a19.15,19.15,0,0,0,12.1,17.87l119.36,47.72a19.24,19.24,0,0,0,7.14,1.37,19,19,0,0,0,7.13-1.38L360.4,371.17a19.14,19.14,0,0,0,12.1-17.86v-136l2.74-1.22L423,194.91l6.49-2.89V348.69ZM334,241.57v98.72l-2.9,1.16-95.4,38.17-1.72.69-1.72-.69-95.5-38.18-2.9-1.16V234.42l6.49,2.89,85.8,38.13a19.2,19.2,0,0,0,15.64,0l85.7-38.09,6.49-2.89Zm57.87-74.93L235.88,236l-1.88.83-1.88-.83-156-69.34-9.5-4.22,9.5-4.22,156-69.34L234,88l1.88.83,156,69.34,9.5,4.22Z"/></svg>