<svg id="Layer_1" data-name="Layer 1" xmlns="http://www.w3.org/2000/svg" viewBox="0 0 468 468"><defs><style>.cls-1{fill-rule:evenodd;opacity:0.3;}</style></defs><title>Artboard 2</title><path d="M189.13,179.41a89.7,89.7,0,1,0-89.7-89.7A89.8,89.8,0,0,0,189.13,179.41Zm0-134.56A44.85,44.85,0,1,1,144.27,89.7,44.9,44.9,0,0,1,189.13,44.85Z"/><path d="M451.67,429.72l-51-51a88.71,88.71,0,0,0,12.69-45.24,88.19,88.19,0,0,0-104.31-88.23A179.79,179.79,0,0,0,189.17,199C90.24,199,9.76,279.44,9.76,378.36v22.43H265a87.62,87.62,0,0,0,104,9.69L420,461.43a22.42,22.42,0,0,0,31.71-31.71Zm-214.5-73.78H56.48c10.71-63.56,66.14-112.13,132.69-112.13a134.75,134.75,0,0,1,75,23.06C245.8,283.3,234,306.95,234,333.51A88.64,88.64,0,0,0,237.16,355.94Zm86.52,35.56a58,58,0,1,1,58-58A58,58,0,0,1,323.68,391.49Z"/><polygon class="cls-1" points="317.75 325.32 297.42 325.32 297.42 341.63 317.75 341.63 317.75 362.12 334.02 362.12 334.02 341.63 354.35 341.63 354.35 325.32 334.02 325.32 334.02 304.83 317.75 304.83 317.75 325.32"/></svg>