<svg id="Layer_1" data-name="Layer 1" xmlns="http://www.w3.org/2000/svg" viewBox="0 0 468 468"><defs><style>.cls-1{opacity:0.3;}</style></defs><title>Artboard 2 copy</title><path d="M165.77,210.32A94.73,94.73,0,1,0,71,115.59,94.83,94.83,0,0,0,165.77,210.32Zm0-142.09a47.36,47.36,0,1,1-47.36,47.36A47.42,47.42,0,0,1,165.77,68.23Z"/><path class="cls-1" d="M349.59,281.36a71,71,0,1,0-71-71A71.12,71.12,0,0,0,349.59,281.36Zm0-104.85a33.8,33.8,0,1,1-33.8,33.8A33.83,33.83,0,0,1,349.59,176.52Z"/><path d="M303.6,317.45l-.39.18C273.39,267.21,222.91,234,165.77,234,74.38,234,0,319,0,423.46v23.68H331.3C334,372.25,310.86,329,303.6,317.45ZM49,399.77c9.44-67.11,58.21-118.41,116.77-118.41s107.33,51.29,116.77,118.41Z"/><path class="cls-1" d="M349.59,305a115.15,115.15,0,0,0-46.21,9.89c4.19,6.71,12,21.16,18.42,43.56a68.19,68.19,0,0,1,27.79-6.09,71.19,71.19,0,0,1,67,47.36H329.84a317.87,317.87,0,0,1,1.7,47.36H468V423.46A118.55,118.55,0,0,0,349.59,305Z"/></svg>