<svg id="Layer_1" data-name="Layer 1" xmlns="http://www.w3.org/2000/svg" viewBox="0 0 468 468"><defs><style>.cls-1{opacity:0.3;}</style></defs><title>Artboard 6</title><path d="M187.2,187.2A70.2,70.2,0,1,0,117,257.4,70.28,70.28,0,0,0,187.2,187.2ZM82,187.2a35,35,0,1,1,35,35A35,35,0,0,1,82,187.2Z"/><rect class="cls-1" width="468" height="46.8"/><rect class="cls-1" x="234" y="93.6" width="234" height="46.8"/><rect class="cls-1" x="374.4" y="187.2" width="93.6" height="46.8"/><path d="M318.39,210.12l-112.5,112.5C184.41,297.26,152.75,280.8,117,280.8A117.14,117.14,0,0,0,0,397.8V468H234V397.8c0-11.2-2.08-21.82-5-32.08L351.48,243.21ZM187.2,421.2H46.8V397.8a70.2,70.2,0,1,1,140.4,0Z"/></svg>