<svg id="Layer_1" data-name="Layer 1" xmlns="http://www.w3.org/2000/svg" viewBox="0 0 468 468"><defs><style>.cls-1{opacity:0.3;}</style></defs><title>Artboard 2 copy 3</title><path d="M172.72,393.23A69.51,69.51,0,0,0,187.2,351a70.2,70.2,0,1,0-140.4,0,69.53,69.53,0,0,0,14.48,42.23C38.43,410.31,23.4,437.33,23.4,468H70.2a46.8,46.8,0,1,1,93.6,0h46.8C210.6,437.33,195.57,410.31,172.72,393.23ZM83.35,351A33.65,33.65,0,1,1,117,384.65,33.7,33.7,0,0,1,83.35,351Z"/><path d="M405.64,393.23A69.51,69.51,0,0,0,420.12,351a70.2,70.2,0,1,0-140.4,0,69.53,69.53,0,0,0,14.48,42.23c-22.86,17.08-37.88,44.1-37.88,74.77h46.8a46.8,46.8,0,1,1,93.6,0h46.8C443.52,437.33,428.49,410.31,405.64,393.23ZM316.27,351a33.65,33.65,0,1,1,33.65,33.65A33.7,33.7,0,0,1,316.27,351Z"/><path d="M23.4,0V234H444.6V0ZM408.09,199.33H59.91V34.67H408.09Z"/><rect class="cls-1" x="84.32" y="61.61" width="298.49" height="22.15"/><rect class="cls-1" x="233.57" y="105.92" width="149.25" height="22.15"/><rect class="cls-1" x="323.12" y="150.23" width="59.7" height="22.15"/></svg>