<svg id="Layer_1" data-name="Layer 1" xmlns="http://www.w3.org/2000/svg" viewBox="0 0 576 576"><defs><style>.cls-1{fill:#fff;}</style></defs><title>Artboard 1</title><path class="cls-1" d="M534.14,240.83a246.81,246.81,0,0,0-9.37-35.07l10.71-26.31-8.83-15.29-12.09-20.9L505.71,128l-28.19-3.9A245.59,245.59,0,0,0,452,98.48L448,70.27l-15.24-8.81L411.84,49.37l-15.28-8.81-26.3,10.69a245.55,245.55,0,0,0-35.07-9.37l-17.5-22.46H258.3L240.82,41.88a244.56,244.56,0,0,0-35,9.37L179.44,40.54l-15.25,8.83L143.26,61.46,128,70.27l-3.92,28.21a252.11,252.11,0,0,0-25.62,25.6L70.29,128l-8.83,15.28-12.07,20.9-8.81,15.29,10.71,26.31a239.31,239.31,0,0,0-9.37,35l-22.49,17.5v59.4L41.91,335.2a239.05,239.05,0,0,0,9.37,35L40.57,396.56l8.81,15.27,12.07,20.92L70.29,448l28.17,3.92a253.8,253.8,0,0,0,25.62,25.58L128,505.73l15.27,8.79,20.94,12.11,15.25,8.79,26.33-10.67a251.84,251.84,0,0,0,35,9.37l17.48,22.42h59.38l17.5-22.42a254.43,254.43,0,0,0,35.07-9.37l26.3,10.71,15.26-8.83,21-12.11L448,505.73,452,477.5a248.85,248.85,0,0,0,25.55-25.56L505.73,448l8.83-15.27,12.09-20.92,8.77-15.27-10.65-26.33a247,247,0,0,0,9.37-35l22.44-17.48v-59.4ZM288.21,519.74C160.21,519.74,56.45,416,56.45,288S160.21,56.23,288.21,56.23,520,160,520,288,416.2,519.74,288.21,519.74Z"/><path class="cls-1" d="M288.21,65.27C165.21,65.27,65.5,165,65.5,288s99.71,222.71,222.71,222.71S510.92,411,510.92,288,411.21,65.27,288.21,65.27ZM490.28,257.44a6,6,0,0,1,5.64-.18c5.12,2.76,7.57,10.49,6.13,18-3-5.31-11.8-6-13.77-11.74a5,5,0,0,1,.73-5c4.33,2.51,7.81,6.33,11.08,11C497.76,264.72,494.87,260.38,490.28,257.44Zm9.27-4.46c-3.54-5-12.37-4.75-14.92-10.23a5,5,0,0,1,.2-5.08c4.57,2,8.43,5.48,12.17,9.77-2.82-4.53-6.15-8.54-11-11a6,6,0,0,1,5.59-.77C496.95,237.91,500.19,245.34,499.54,253ZM444.67,186.2c-6.11-4.64-9.48-12-7.51-17.49a6,6,0,0,1,4.31-3.64c-1.44,5.26-.7,10.41.79,15.54-.69-5.66-.66-10.83.88-15.59a5,5,0,0,1,3.92,3.25C449.41,173.84,443.34,180.25,444.67,186.2Zm13,189.54a6,6,0,0,1,5.08,2.46c-5.39.82-9.79,3.6-13.87,7,4.89-2.93,9.63-5,14.6-5.53a5,5,0,0,1-1.37,4.89c-4.13,4.42-12.46,1.49-17.36,5.12C446.45,382.25,451.82,376.17,457.63,375.74Zm-2.48-193.83a5,5,0,0,1,3.55,3.64c1.76,5.78-4.94,11.53-4.25,17.59-5.59-5.25-8.17-12.94-5.64-18.18a6,6,0,0,1,4.67-3.17c-2,5.07-1.78,10.28-.84,15.53C452.54,191.62,453.11,186.48,455.14,181.91ZM461.21,215c.5-5.67,1.61-10.73,4.1-15.06a5,5,0,0,1,3.15,4c1.15,5.94-6.12,10.95-6.06,17-5-5.81-6.77-13.72-3.71-18.67a6,6,0,0,1,5-2.66C461.17,204.51,460.83,209.7,461.21,215Zm12.33,4a5,5,0,0,1,2.72,4.3c.52,6-7.23,10.25-7.81,16.32-4.38-6.3-5.3-14.35-1.74-19a6,6,0,0,1,5.22-2.13c-3,4.55-3.88,9.68-4.05,15C469,227.94,470.61,223,473.54,219Zm6.2,19.77a5,5,0,0,1,2.25,4.56c-.11,6-8.26,9.43-9.47,15.42-3.7-6.72-3.77-14.83.25-19a6,6,0,0,1,5.42-1.57c-3.45,4.21-4.87,9.23-5.6,14.51C474.27,247.19,476.4,242.47,479.74,238.75Zm4.09,20.31a5,5,0,0,1,1.77,4.77c-.74,6-9.21,8.52-11,14.34-3-7.07-2.2-15.14,2.24-18.9a6,6,0,0,1,5.55-1c-3.88,3.83-5.81,8.67-7.09,13.85C477.51,266.88,480.12,262.41,483.83,259.06ZM454.47,372.78c1-7.62,5.67-14.21,11.39-15.25a6,6,0,0,1,5.31,1.91c-5.27,1.38-9.36,4.6-13.06,8.45,4.55-3.42,9-6,13.94-7a5,5,0,0,1-.86,5C467.55,370.7,459,368.65,454.47,372.78Zm8-17.86c.16-7.67,4.15-14.73,9.74-16.36a6,6,0,0,1,5.48,1.35c-5.1,1.92-8.83,5.56-12.1,9.76,4.17-3.88,8.37-6.9,13.13-8.44a5,5,0,0,1-.33,5.07C475.22,351.48,466.46,350.34,462.42,354.91Zm6-18.6c-.65-7.65,2.59-15.08,8-17.29a6,6,0,0,1,5.59.77c-4.87,2.44-8.2,6.45-11,11,3.74-4.3,7.61-7.73,12.17-9.78a5,5,0,0,1,.2,5.08C480.83,331.56,472,331.34,468.46,336.31Zm4.06-19.13c-1.44-7.54,1-15.27,6.12-18a6,6,0,0,1,5.64.18c-4.59,2.94-7.48,7.27-9.81,12.07,3.27-4.66,6.76-8.49,11.08-11a5,5,0,0,1,.74,5C484.32,311.16,475.53,311.87,472.53,317.19Zm2-19.45c-2.22-7.34-.6-15.29,4.21-18.57a6,6,0,0,1,5.63-.41c-4.25,3.4-6.68,8-8.49,13,2.77-5,5.83-9.15,9.88-12.09a5,5,0,0,1,1.26,4.93C485.68,290.51,477,292.13,474.57,297.73Zm20.16-66.67c-4-4.58-12.79-3.43-15.91-8.62a5,5,0,0,1-.33-5.07c4.76,1.55,9,4.57,13.13,8.45-3.27-4.21-7-7.85-12.1-9.77a6,6,0,0,1,5.48-1.35C490.57,216.34,494.57,223.4,494.73,231.07Zm-7.08-21.3c-4.5-4.13-13.08-2.08-16.73-6.91a5,5,0,0,1-.86-5c4.89,1,9.39,3.61,13.94,7-3.7-3.85-7.79-7.07-13.06-8.45a6,6,0,0,1,5.31-1.91C482,195.56,486.68,202.15,487.64,209.77Zm-9.27-20.44c-4.9-3.64-13.23-.7-17.36-5.12a5,5,0,0,1-1.38-4.89c5,.53,9.71,2.61,14.6,5.53-4.08-3.43-8.49-6.22-13.87-7a6,6,0,0,1,5.08-2.46C471.25,175.79,476.62,181.86,478.38,189.33ZM467,170c-5.26-3.1-13.23.69-17.8-3.28a5,5,0,0,1-1.88-4.72c5,0,9.93,1.58,15.1,4-4.42-3-9.09-5.3-14.53-5.55a6,6,0,0,1,4.79-3C458.52,157.25,464.5,162.72,467,170ZM453.7,151.9c-5.55-2.54-13.09,2.07-18-1.4a5,5,0,0,1-2.36-4.5c5-.52,10,.53,15.43,2.38-4.71-2.51-9.59-4.32-15-4a6,6,0,0,1,4.46-3.46C443.92,140.14,450.44,145,453.7,151.9Zm-20.53,18.48c-6.56-4-10.68-11-9.3-16.61a6,6,0,0,1,3.9-4.07c-.88,5.37.4,10.43,2.41,15.37-1.27-5.55-1.79-10.7-.75-15.59a5,5,0,0,1,4.23,2.82C436.59,157.59,431.23,164.6,433.17,170.39Zm5.39-35.06c-5.79-1.94-12.79,3.42-18.09.49a5,5,0,0,1-2.82-4.23c4.89-1,10-.52,15.59.75-4.94-2-10-3.29-15.37-2.41A6,6,0,0,1,422,126C427.61,124.65,434.6,128.77,438.57,135.33Zm-22,15.55c-1.85-5.39-2.9-10.46-2.38-15.43a5,5,0,0,1,4.5,2.36c3.47,5-1.14,12.49,1.4,18-6.95-3.26-11.77-9.78-11-15.55a6,6,0,0,1,3.46-4.45C412.25,141.29,414,146.18,416.56,150.88Zm5.23-30.45c-6-1.33-12.37,4.74-17.94,2.38a5,5,0,0,1-3.25-3.91c4.76-1.54,9.93-1.57,15.59-.88-5.12-1.48-10.28-2.23-15.54-.79a6,6,0,0,1,3.64-4.31C409.77,111,417.15,114.31,421.79,120.43Zm-24.24,2.67a5,5,0,0,1,4.72,1.88c4,4.57.17,12.54,3.28,17.8-7.25-2.52-12.72-8.5-12.55-14.32a6,6,0,0,1,3-4.79c.25,5.44,2.56,10.12,5.55,14.53C399.12,133,397.55,128.1,397.55,123.1Zm-12.19-21.38c5.24-2.52,12.93,0,18.18,5.64-6.06-.7-11.8,6-17.59,4.24a5,5,0,0,1-3.64-3.55c4.57-2,9.71-2.59,15.41-2.51-5.25-.94-10.46-1.14-15.53.84A6,6,0,0,1,385.36,101.72Zm8.71,353.41a5,5,0,0,1-3.64,3.55c-5.79,1.77-11.53-4.94-17.59-4.24,5.25-5.59,12.94-8.16,18.18-5.64a6,6,0,0,1,3.17,4.67c-5.07-2-10.28-1.78-15.53-.84C384.36,452.53,389.5,453.1,394.07,455.13ZM376,465.3a5,5,0,0,1-4,3.15c-5.94,1.15-11-6.12-17-6.06,5.8-5,13.72-6.76,18.67-3.71a6,6,0,0,1,2.66,5c-4.84-2.5-10-2.84-15.36-2.46C366.63,461.7,371.69,462.8,376,465.3Zm-19,8.23a5,5,0,0,1-4.3,2.71c-6,.52-10.25-7.23-16.32-7.8,6.3-4.39,14.35-5.3,19-1.74a6,6,0,0,1,2.13,5.22c-4.55-3-9.68-3.88-15-4.05C348,469,353,470.59,357,473.53Zm-19.77,6.19a5,5,0,0,1-4.56,2.25c-6-.11-9.44-8.26-15.42-9.47,6.72-3.7,14.83-3.77,19,.25a6,6,0,0,1,1.57,5.42c-4.21-3.46-9.23-4.87-14.51-5.6C328.8,474.25,333.51,476.38,337.23,479.72ZM212.42,217.25v23.07H197.56V194.76h14.87v8.07H363.58v-8.07h14.87v45.56H363.58V217.25H301.63V382.49h31v10.67H243.4V382.49h31V217.25Zm22.34,261.4a5,5,0,0,1-5.07-.33c-5.18-3.12-4-11.87-8.62-15.91,7.67.15,14.73,4.15,16.36,9.74a6,6,0,0,1-1.35,5.48c-1.92-5.1-5.56-8.83-9.76-12.11C230.2,469.69,233.22,473.9,234.76,478.65ZM215.13,472a5,5,0,0,1-5-.85c-4.83-3.65-2.78-12.23-6.91-16.73,7.61,1,14.21,5.67,15.25,11.39a6,6,0,0,1-1.92,5.31c-1.38-5.27-4.6-9.37-8.45-13.06C211.52,462.66,214.08,467.15,215.13,472Zm-18.84-8.63a5,5,0,0,1-4.89-1.37c-4.42-4.13-1.48-12.45-5.12-17.35,7.47,1.75,13.54,7.12,14,12.92a6,6,0,0,1-2.46,5.08c-.82-5.39-3.6-9.79-7-13.87C193.68,453.7,195.76,458.44,196.29,463.41ZM181.93,120.84a5,5,0,0,1,3.64-3.55c5.78-1.76,11.53,4.94,17.59,4.24-5.25,5.59-12.94,8.17-18.18,5.64a6,6,0,0,1-3.17-4.67c5.07,2,10.28,1.78,15.53.84C191.64,123.44,186.5,122.87,181.93,120.84Zm18-10.17a5,5,0,0,1,4-3.15c5.94-1.15,10.95,6.12,17,6.06-5.81,5-13.72,6.77-18.67,3.71a6,6,0,0,1-2.66-5c4.84,2.5,10,2.85,15.36,2.46C209.36,114.27,204.31,113.17,200,110.67Zm19-8.23a5,5,0,0,1,4.3-2.72c6-.52,10.25,7.23,16.32,7.81-6.29,4.38-14.35,5.29-19,1.74a6,6,0,0,1-2.13-5.22c4.55,3,9.69,3.88,15,4.05C228,107,223,105.38,219,102.44Zm19.77-6.2A5,5,0,0,1,243.33,94c6,.11,9.44,8.26,15.42,9.47-6.72,3.7-14.83,3.77-19-.25a6,6,0,0,1-1.57-5.42c4.21,3.45,9.23,4.87,14.51,5.6C247.2,101.72,242.49,99.59,238.77,96.24Zm102.47,1.07a5,5,0,0,1,5.07.33c5.18,3.12,4,11.87,8.62,15.91-7.67-.16-14.73-4.15-16.36-9.74a6,6,0,0,1,1.35-5.47c1.92,5.1,5.56,8.83,9.77,12.1C345.8,106.27,342.78,102.07,341.24,97.31Zm19.64,6.61a5,5,0,0,1,5,.86c4.83,3.64,2.78,12.23,6.91,16.72-7.61-1-14.21-5.67-15.25-11.4a6,6,0,0,1,1.92-5.31c1.38,5.27,4.6,9.36,8.45,13.06C364.48,113.31,361.92,108.82,360.87,103.92Zm14.88,14.43a6,6,0,0,1,2.46-5.08c.82,5.39,3.6,9.79,7,13.88-2.93-4.89-5-9.63-5.53-14.6a5,5,0,0,1,4.89,1.37c4.42,4.13,1.48,12.46,5.12,17.36C382.26,129.53,376.19,124.16,375.75,118.35Zm-10.4-25.79c5-3.06,12.87-1.3,18.67,3.71-6.1-.06-11.11,7.21-17,6.06a5,5,0,0,1-4-3.15c4.34-2.5,9.39-3.6,15.06-4.1-5.32-.38-10.52,0-15.36,2.46A6,6,0,0,1,365.35,92.56Zm-20.85-7c4.6-3.56,12.66-2.65,19,1.74-6.08.58-10.3,8.33-16.32,7.8a5,5,0,0,1-4.3-2.71c4-2.94,9-4.56,14.55-5.66-5.33.17-10.47,1.05-15,4.05A6,6,0,0,1,344.5,85.55ZM323,80.75c4.2-4,12.32-4,19-.26-6,1.21-9.37,9.36-15.42,9.47a5,5,0,0,1-4.56-2.25c3.72-3.34,8.44-5.47,13.88-7.14-5.29.73-10.3,2.14-14.51,5.6A6,6,0,0,1,323,80.75Zm3.06,11.84c5.48,2.56,5.26,11.38,10.23,14.92-7.65.65-15.08-2.59-17.29-8a6,6,0,0,1,.77-5.59c2.44,4.87,6.45,8.2,11,11-4.3-3.75-7.73-7.61-9.78-12.17A5,5,0,0,1,326.09,92.59ZM301.18,78.22C304.94,73.79,313,73,320.08,76c-5.82,1.83-8.34,10.29-14.34,11A5,5,0,0,1,301,85.25c3.35-3.72,7.82-6.32,13.06-8.56-5.18,1.28-10,3.21-13.85,7.09A6,6,0,0,1,301.18,78.22Zm-1.83,13.47c2.94,4.59,7.27,7.48,12.07,9.81-4.66-3.28-8.49-6.76-11-11.08a5,5,0,0,1,5-.74c5.72,2,6.42,10.77,11.74,13.77-7.54,1.44-15.27-1-18-6.13A6,6,0,0,1,299.35,91.69ZM279.18,78c3.28-4.8,11.23-6.43,18.57-4.21-5.6,2.43-7.22,11.11-13.11,12.47A5,5,0,0,1,279.71,85c2.94-4,7.11-7.11,12.09-9.88-5,1.81-9.63,4.24-13,8.49A6,6,0,0,1,279.18,78Zm-.41,13.58c3.4,4.25,8,6.68,13,8.49-5-2.77-9.15-5.83-12.09-9.88a5,5,0,0,1,4.93-1.25c5.89,1.37,7.51,10,13.11,12.47-7.34,2.22-15.29.6-18.57-4.21A6,6,0,0,1,278.77,91.58Zm-19.49,7.59a6,6,0,0,1-1-5.55c3.83,3.87,8.67,5.81,13.85,7.09-5.24-2.24-9.71-4.85-13.06-8.56a5,5,0,0,1,4.77-1.77c6,.74,8.52,9.21,14.35,11C271.12,104.39,263.05,103.61,259.29,99.17Zm-2-19.1c2.76-5.12,10.49-7.56,18-6.13-5.32,3-6,11.8-11.74,13.77a5,5,0,0,1-5-.74c2.5-4.32,6.33-7.81,11-11.08-4.8,2.33-9.13,5.22-12.07,9.81A6,6,0,0,1,257.28,80.07Zm-21.56,4.35c2.21-5.38,9.64-8.62,17.29-8-5,3.54-4.75,12.36-10.23,14.92a5,5,0,0,1-5.08-.2c2-4.56,5.48-8.43,9.77-12.17-4.53,2.81-8.54,6.15-11,11A6,6,0,0,1,235.72,84.42Zm-21,6.58c1.63-5.58,8.69-9.58,16.36-9.74-4.58,4-3.44,12.79-8.62,15.91a5,5,0,0,1-5.07.33c1.55-4.75,4.57-9,8.45-13.13-4.21,3.27-7.85,7-9.77,12.1A6,6,0,0,1,214.72,91Zm-20.19,8.74c1-5.73,7.64-10.44,15.25-11.4-4.13,4.5-2.08,13.08-6.91,16.73a5,5,0,0,1-5,.85c1-4.89,3.61-9.38,7-13.94-3.84,3.7-7.07,7.79-8.45,13.06A6,6,0,0,1,194.53,99.74Zm-5.19-2.13c-3.63,4.9-.7,13.23-5.12,17.35a5,5,0,0,1-4.89,1.38c.53-5,2.61-9.71,5.53-14.6-3.43,4.08-6.22,8.49-7,13.87a6,6,0,0,1-2.46-5.08C175.81,104.73,181.87,99.36,189.34,97.61Zm-3.12,33.7c-4.64,6.11-12,9.47-17.5,7.51a6,6,0,0,1-3.64-4.31c5.26,1.44,10.41.7,15.54-.79-5.66.69-10.83.66-15.59-.88a5,5,0,0,1,3.25-3.91C173.85,126.57,180.27,132.64,186.22,131.31Zm-7.77,321.56a5,5,0,0,1-4.73-1.88c-4-4.57-.17-12.54-3.28-17.8,7.25,2.52,12.72,8.5,12.55,14.31a6,6,0,0,1-3,4.79c-.25-5.44-2.56-10.11-5.54-14.53C176.87,442.94,178.45,447.87,178.45,452.87ZM170,109c-3.1,5.26.69,13.23-3.28,17.8a5,5,0,0,1-4.72,1.88c0-5,1.58-9.93,4-15.1-3,4.42-5.3,9.09-5.55,14.53a6,6,0,0,1-3-4.79C157.26,117.47,162.74,111.49,170,109Zm.42,33.84c-4,6.56-11,10.68-16.62,9.3a6,6,0,0,1-4.07-3.91c5.37.88,10.42-.4,15.37-2.41-5.55,1.27-10.7,1.79-15.59.75a5,5,0,0,1,2.82-4.23C157.61,139.39,164.62,144.75,170.4,142.81Zm-11,282.28c1.85,5.39,2.9,10.46,2.38,15.43a5,5,0,0,1-4.5-2.36c-3.47-5,1.14-12.49-1.4-18,6.95,3.26,11.77,9.78,11,15.55a6,6,0,0,1-3.47,4.45C163.75,434.68,162,429.79,159.44,425.09Zm-7.52-302.8c-2.54,5.55,2.07,13.08-1.4,18a5,5,0,0,1-4.5,2.36c-.52-5,.53-10,2.38-15.43-2.51,4.7-4.32,9.59-4,15a6,6,0,0,1-3.46-4.45C140.16,132.07,145,125.55,151.92,122.28Zm4,33.61c-3.26,6.95-9.78,11.77-15.55,11a6,6,0,0,1-4.45-3.47c5.44.32,10.33-1.48,15-4-5.39,1.85-10.46,2.9-15.43,2.38a5,5,0,0,1,2.36-4.5C142.79,153.83,150.32,158.44,155.87,155.89Zm-10.06,255c1.27,5.55,1.79,10.7.75,15.59a5,5,0,0,1-4.24-2.82c-2.93-5.29,2.44-12.31.49-18.09,6.57,4,10.68,11,9.3,16.61a6,6,0,0,1-3.91,4.07C149.1,420.89,147.82,415.84,145.81,410.9ZM135.35,137.41c-1.94,5.79,3.42,12.8.49,18.09a5,5,0,0,1-4.23,2.82c-1-4.89-.52-10,.75-15.59-2,4.94-3.29,10-2.4,15.37A6,6,0,0,1,126,154C124.67,148.37,128.78,141.39,135.35,137.41ZM125,173.71c4.57-4,12.54-.17,17.8-3.28-2.52,7.25-8.5,12.73-14.32,12.55a6,6,0,0,1-4.79-3c5.44-.25,10.12-2.56,14.53-5.55-5.17,2.4-10.09,4-15.1,4A5,5,0,0,1,125,173.71Zm8.75,221.65c.69,5.65.66,10.83-.89,15.58a5,5,0,0,1-3.91-3.25c-2.36-5.57,3.71-12,2.38-17.94,6.11,4.64,9.47,12,7.51,17.5a6,6,0,0,1-4.31,3.64C136,405.64,135.23,400.48,133.74,395.36Zm-12.89-1.31a5,5,0,0,1-3.55-3.64c-1.76-5.78,4.94-11.52,4.24-17.59,5.6,5.25,8.17,12.94,5.64,18.18a6,6,0,0,1-4.67,3.17c2-5.08,1.78-10.28.84-15.53C123.46,384.34,122.89,389.49,120.86,394.06Zm-6.07-33.12c-.5,5.67-1.61,10.73-4.1,15.06a5,5,0,0,1-3.15-4c-1.15-5.94,6.12-10.95,6.06-17,5,5.81,6.77,13.72,3.71,18.67a6,6,0,0,1-5,2.66C114.83,371.46,115.17,366.26,114.79,360.94Zm-12.33-4a5,5,0,0,1-2.72-4.3c-.52-6,7.23-10.25,7.81-16.32,4.39,6.3,5.3,14.35,1.74,19a6,6,0,0,1-5.22,2.13c3-4.55,3.88-9.69,4.05-15C107,348,105.39,352.94,102.46,357Zm-6.2-19.77A5,5,0,0,1,94,332.66c.12-6,8.27-9.43,9.47-15.42,3.7,6.72,3.77,14.83-.25,19a6,6,0,0,1-5.42,1.57c3.45-4.22,4.87-9.23,5.6-14.51C101.73,328.78,99.6,333.5,96.26,337.21Zm-4.1-20.31a5,5,0,0,1-1.76-4.77c.74-6,9.2-8.52,11-14.34,3,7.07,2.2,15.14-2.24,18.91a6,6,0,0,1-5.56,1c3.87-3.83,5.81-8.67,7.09-13.85C98.49,309.09,95.88,313.56,92.16,316.9Zm11.78-101.79a5,5,0,0,1,.85-5c3.64-4.83,12.23-2.78,16.73-6.91-1,7.61-5.67,14.21-11.4,15.25a6,6,0,0,1-5.31-1.91c5.27-1.38,9.36-4.6,13.06-8.45C113.33,211.5,108.83,214.07,103.94,215.11Zm9.63,5.94c-.15,7.67-4.15,14.73-9.74,16.36a6,6,0,0,1-5.48-1.35c5.1-1.92,8.83-5.56,12.11-9.76-4.17,3.88-8.38,6.9-13.13,8.45a5,5,0,0,1,.33-5.08C100.78,224.49,109.53,225.63,113.57,221.05Zm-6,18.6c.65,7.65-2.59,15.08-8,17.29a6,6,0,0,1-5.59-.77c4.87-2.44,8.2-6.45,11-11-3.75,4.29-7.61,7.73-12.17,9.77a5,5,0,0,1-.21-5.08C95.17,244.41,104,244.63,107.53,239.66Zm-4.06,19.13c1.44,7.53-1,15.27-6.12,18a6,6,0,0,1-5.64-.18c4.59-2.94,7.48-7.27,9.81-12.07-3.28,4.66-6.76,8.49-11.09,11a5,5,0,0,1-.74-5C91.67,264.81,100.47,264.1,103.47,258.79Zm-2,19.45c2.23,7.34.6,15.29-4.2,18.57a6,6,0,0,1-5.63.41c4.25-3.4,6.68-8,8.5-13-2.77,5-5.83,9.15-9.88,12.09A5,5,0,0,1,89,291.35C90.32,285.46,99,283.84,101.43,278.23Zm16.94-78a6,6,0,0,1-5.08-2.46c5.39-.82,9.79-3.6,13.87-7-4.89,2.93-9.63,5-14.6,5.53a5,5,0,0,1,1.37-4.9c4.13-4.42,12.45-1.48,17.35-5.12C129.55,193.73,124.17,199.79,118.37,200.23Zm2.07-46c-1.33,6,4.74,12.37,2.38,17.93a5,5,0,0,1-3.91,3.25c-1.54-4.76-1.56-9.93-.88-15.59-1.48,5.12-2.23,10.28-.79,15.54a6,6,0,0,1-4.31-3.64C111,166.21,114.33,158.83,120.44,154.2Zm-13.07,18.25c-.7,6.06,6,11.8,4.24,17.59a5,5,0,0,1-3.55,3.64c-2-4.57-2.6-9.71-2.51-15.41-.94,5.25-1.14,10.46.84,15.53a6,6,0,0,1-4.66-3.17C99.21,185.38,101.78,177.69,107.37,172.44ZM96.29,192c-.06,6.1,7.21,11.12,6.06,17.05a5,5,0,0,1-3.15,4c-2.49-4.33-3.6-9.39-4.1-15.06-.38,5.32,0,10.52,2.46,15.36a6,6,0,0,1-5-2.66C89.52,205.68,91.27,197.76,96.29,192Zm-9,20.57c.58,6.08,8.33,10.3,7.81,16.32a5,5,0,0,1-2.72,4.29c-2.93-4-4.56-9-5.65-14.55.17,5.33,1.05,10.47,4.05,15a6,6,0,0,1-5.22-2.13C82,226.87,82.92,218.82,87.3,212.52Zm-6.79,21.39c1.21,6,9.36,9.37,9.47,15.42a5,5,0,0,1-2.25,4.56c-3.34-3.72-5.47-8.44-7.15-13.88.73,5.29,2.14,10.3,5.6,14.51a6,6,0,0,1-5.42-1.57C76.75,248.74,76.82,240.64,80.51,233.91ZM76,255.9c1.83,5.82,10.29,8.34,11,14.34A5,5,0,0,1,85.26,275c-3.71-3.35-6.32-7.82-8.55-13.06,1.28,5.17,3.21,10,7.08,13.85a6,6,0,0,1-5.55-1C73.8,271,73,263,76,255.9ZM73.8,278.23c2.43,5.6,11.1,7.22,12.47,13.11A5,5,0,0,1,85,296.27c-4-2.94-7.1-7.11-9.87-12.09,1.81,5,4.24,9.63,8.49,13A6,6,0,0,1,78,296.8C73.2,293.52,71.59,285.58,73.8,278.23ZM74,300.68c3,5.31,11.8,6,13.77,11.74a5,5,0,0,1-.74,5c-4.33-2.5-7.81-6.33-11.08-11,2.33,4.79,5.22,9.13,9.81,12.07a6,6,0,0,1-5.64.18C75,315.94,72.52,308.21,74,300.68Zm2.5,22.3c3.54,5,12.36,4.75,14.92,10.23a5,5,0,0,1-.2,5.08c-4.57-2-8.43-5.48-12.17-9.78,2.82,4.53,6.15,8.54,11,11a6,6,0,0,1-5.59.77C79,338.06,75.81,330.63,76.46,323Zm4.82,21.92c4,4.57,12.79,3.43,15.91,8.62a5,5,0,0,1,.33,5.07c-4.75-1.55-9-4.57-13.13-8.45,3.28,4.21,7,7.85,12.11,9.76A6,6,0,0,1,91,361.26C85.43,359.63,81.44,352.57,81.27,344.9Zm7.08,21.3c4.5,4.13,13.08,2.08,16.72,6.91a5,5,0,0,1,.86,5c-4.89-1-9.38-3.61-13.94-7,3.7,3.85,7.79,7.07,13.06,8.45a6,6,0,0,1-5.31,1.91C94,380.41,89.32,373.81,88.36,366.2Zm9.27,20.44c4.9,3.63,13.23.7,17.36,5.12a5,5,0,0,1,1.37,4.89c-5-.53-9.71-2.61-14.6-5.53,4.08,3.44,8.49,6.22,13.87,7a6,6,0,0,1-5.08,2.46C104.75,400.18,99.38,394.11,97.63,386.64ZM109,406c5.26,3.1,13.23-.69,17.79,3.28a5,5,0,0,1,1.88,4.72c-5,0-9.93-1.58-15.1-4,4.42,3,9.09,5.3,14.53,5.55a6,6,0,0,1-4.79,3C117.48,418.72,111.5,413.24,109,406Zm13.31,18.07c5.55,2.53,13.09-2.07,18,1.4a5,5,0,0,1,2.36,4.5c-5,.52-10-.53-15.43-2.38,4.7,2.51,9.59,4.32,15,4a6,6,0,0,1-4.46,3.46C132.08,435.82,125.56,431,122.3,424.07Zm15.13,16.57c5.79,1.94,12.8-3.43,18.09-.49a5,5,0,0,1,2.82,4.23c-4.89,1-10,.52-15.59-.75,4.94,2,10,3.29,15.37,2.4a6,6,0,0,1-4.07,3.91C148.39,451.31,141.4,447.2,137.43,440.64Zm16.78,14.9c6,1.33,12.37-4.74,17.94-2.38a5,5,0,0,1,3.25,3.91c-4.76,1.54-9.93,1.56-15.58.88,5.12,1.48,10.28,2.23,15.53.79a6,6,0,0,1-3.64,4.31C166.22,465,158.85,461.65,154.21,455.54Zm36.43,18.7c-5.24,2.53-12.93,0-18.18-5.64,6.06.7,11.8-6,17.59-4.24a5,5,0,0,1,3.64,3.55c-4.57,2-9.71,2.6-15.41,2.51,5.25.94,10.46,1.14,15.54-.84A6,6,0,0,1,190.64,474.25Zm20,9.16c-5,3.06-12.87,1.31-18.67-3.71,6.1.06,11.11-7.21,17-6.06a5,5,0,0,1,4,3.15c-4.33,2.49-9.39,3.6-15.06,4.1,5.32.39,10.52,0,15.36-2.46A6,6,0,0,1,210.65,483.4Zm20.85,7c-4.6,3.56-12.66,2.64-19-1.74,6.08-.58,10.3-8.33,16.32-7.81a5,5,0,0,1,4.3,2.72c-4,2.93-9,4.56-14.55,5.65,5.33-.17,10.46-1.06,15-4.05A6,6,0,0,1,231.5,490.42Zm21.47,4.8c-4.21,4-12.32,4-19,.25,6-1.21,9.37-9.36,15.42-9.47a5,5,0,0,1,4.56,2.25c-3.72,3.34-8.44,5.47-13.88,7.15,5.28-.73,10.3-2.14,14.51-5.6A6,6,0,0,1,253,495.22Zm-3.06-11.84c-5.48-2.56-5.26-11.39-10.23-14.92,7.65-.65,15.08,2.59,17.29,8a6,6,0,0,1-.77,5.59c-2.45-4.87-6.45-8.2-11-11,4.29,3.75,7.73,7.61,9.77,12.17A5,5,0,0,1,249.91,483.38Zm24.91,14.36c-3.77,4.44-11.84,5.22-18.9,2.24,5.82-1.83,8.34-10.29,14.34-11a5,5,0,0,1,4.77,1.76c-3.35,3.71-7.82,6.32-13.06,8.56,5.18-1.28,10-3.21,13.85-7.09A6,6,0,0,1,274.82,497.74Zm1.83-13.46c-2.94-4.59-7.27-7.48-12.07-9.81,4.66,3.28,8.49,6.76,11,11.09a5,5,0,0,1-5,.74c-5.72-2-6.42-10.78-11.74-13.77,7.54-1.44,15.27,1,18,6.12A6,6,0,0,1,276.65,484.28ZM296.82,498c-3.28,4.81-11.22,6.43-18.57,4.2,5.6-2.43,7.22-11.1,13.11-12.47a5,5,0,0,1,4.93,1.26c-2.95,4-7.12,7.1-12.09,9.88,5-1.81,9.63-4.24,13-8.5A6,6,0,0,1,296.82,498Zm.41-13.58c-3.4-4.25-8-6.68-13-8.5,5,2.77,9.15,5.83,12.09,9.88a5,5,0,0,1-4.93,1.26c-5.89-1.36-7.51-10-13.11-12.47,7.35-2.22,15.29-.6,18.57,4.2A6,6,0,0,1,297.23,484.39Zm19.49-7.59a6,6,0,0,1,1,5.55c-3.82-3.88-8.67-5.81-13.85-7.09,5.24,2.23,9.71,4.85,13.06,8.56a5,5,0,0,1-4.77,1.76c-6-.74-8.52-9.2-14.35-11C304.88,471.58,312.95,472.36,316.71,476.8Zm2,19.1c-2.76,5.12-10.49,7.57-18,6.13,5.32-3,6-11.8,11.74-13.77a5,5,0,0,1,5,.74c-2.51,4.33-6.33,7.81-11,11.08,4.8-2.33,9.13-5.22,12.07-9.81A6,6,0,0,1,318.72,495.9Zm21.56-4.35c-2.21,5.39-9.64,8.62-17.29,8,5-3.54,4.76-12.36,10.23-14.92a5,5,0,0,1,5.08.2c-2,4.57-5.48,8.43-9.77,12.17,4.53-2.82,8.54-6.15,11-11A6,6,0,0,1,340.29,491.55Zm21-6.58c-1.63,5.59-8.69,9.58-16.36,9.74,4.58-4,3.44-12.79,8.62-15.91a5,5,0,0,1,5.07-.33c-1.55,4.75-4.57,9-8.45,13.13,4.21-3.28,7.85-7,9.77-12.1A6,6,0,0,1,361.28,485Zm20.19-8.74c-1,5.73-7.64,10.44-15.25,11.4,4.13-4.49,2.08-13.08,6.91-16.72a5,5,0,0,1,5-.86c-1,4.89-3.61,9.39-7,13.94,3.84-3.7,7.07-7.79,8.45-13.06A6,6,0,0,1,381.47,476.23Zm5.19,2.13c3.63-4.9.7-13.23,5.12-17.35a5,5,0,0,1,4.89-1.38c-.52,5-2.61,9.71-5.53,14.6,3.44-4.08,6.22-8.49,7-13.87a6,6,0,0,1,2.46,5.07C400.19,471.23,394.12,476.61,386.65,478.36Zm3.12-33.7c4.64-6.11,12-9.48,17.5-7.51a6,6,0,0,1,3.64,4.31c-5.25-1.44-10.41-.69-15.53.79,5.65-.69,10.83-.66,15.59.88a5,5,0,0,1-3.25,3.91C402.15,449.4,395.73,443.33,389.78,444.66ZM406,467c3.1-5.26-.69-13.23,3.28-17.8a5,5,0,0,1,4.72-1.88c0,5-1.58,9.93-4,15.09,3-4.42,5.29-9.09,5.55-14.53a6,6,0,0,1,3,4.79C418.73,458.5,413.26,464.48,406,467Zm-.42-33.84c4-6.56,11-10.68,16.61-9.3a6,6,0,0,1,4.07,3.91c-5.37-.89-10.43.4-15.37,2.41,5.56-1.27,10.7-1.79,15.59-.75a5,5,0,0,1-2.82,4.23C418.39,436.58,411.38,431.22,405.6,433.16Zm18.48,20.53c2.54-5.55-2.06-13.08,1.4-18a5,5,0,0,1,4.5-2.36c.52,5-.53,10-2.38,15.43,2.51-4.71,4.32-9.59,4-15a6,6,0,0,1,3.46,4.45C435.84,443.9,431,450.42,424.08,453.69Zm-4-33.62c3.26-6.94,9.78-11.76,15.55-11a6,6,0,0,1,4.45,3.46c-5.44-.32-10.33,1.49-15,4,5.39-1.85,10.45-2.9,15.43-2.38a5,5,0,0,1-2.36,4.5C433.21,422.14,425.67,417.54,420.13,420.07Zm20.53,18.48c1.94-5.79-3.42-12.79-.49-18.09a5,5,0,0,1,4.23-2.82c1,4.89.52,10-.75,15.59,2-4.94,3.29-10,2.41-15.37a6,6,0,0,1,3.9,4.07C451.33,427.6,447.22,434.58,440.65,438.55ZM451,402.26c-4.56,4-12.54.17-17.79,3.28,2.52-7.25,8.5-12.72,14.31-12.55a6,6,0,0,1,4.79,3c-5.44.25-10.11,2.56-14.53,5.55,5.17-2.4,10.09-4,15.1-4A5,5,0,0,1,451,402.26Zm4.55,19.52c1.32-6-4.74-12.37-2.38-17.94a5,5,0,0,1,3.91-3.25c1.54,4.76,1.57,9.93.89,15.59,1.48-5.12,2.23-10.28.79-15.53a6,6,0,0,1,4.31,3.64C465,409.76,461.67,417.14,455.56,421.78Zm13.06-18.25c.7-6.06-6-11.8-4.24-17.59a5,5,0,0,1,3.55-3.64c2,4.57,2.6,9.71,2.51,15.41.94-5.25,1.14-10.46-.84-15.53a6,6,0,0,1,4.67,3.17C476.79,390.59,474.21,398.28,468.62,403.53ZM479.71,384c.06-6.1-7.21-11.11-6.06-17.05a5,5,0,0,1,3.15-4c2.49,4.33,3.6,9.39,4.1,15.06.38-5.32,0-10.52-2.46-15.36a6,6,0,0,1,5,2.66C486.47,370.29,484.72,378.21,479.71,384Zm9-20.57c-.58-6.08-8.33-10.3-7.8-16.32a5,5,0,0,1,2.71-4.3c2.93,4.05,4.56,9,5.66,14.55-.18-5.33-1.06-10.47-4.05-15a6,6,0,0,1,5.22,2.13C494,349.09,493.08,357.15,488.69,363.45Zm6.79-21.39c-1.21-6-9.36-9.37-9.47-15.42a5,5,0,0,1,2.25-4.56c3.34,3.72,5.47,8.44,7.15,13.88-.73-5.28-2.14-10.3-5.6-14.51a6,6,0,0,1,5.42,1.57C499.25,327.23,499.18,335.34,495.48,342.05Zm4.52-22c-1.83-5.83-10.29-8.34-11-14.35a5,5,0,0,1,1.76-4.77c3.71,3.35,6.32,7.82,8.56,13.06-1.28-5.18-3.21-10-7.09-13.85a6,6,0,0,1,5.55,1C502.19,304.93,503,313,500,320.07Zm-10.27-35.46a5,5,0,0,1,1.26-4.92c4,2.94,7.11,7.11,9.88,12.09-1.81-5-4.24-9.63-8.49-13a6,6,0,0,1,5.62.41c4.81,3.28,6.43,11.22,4.21,18.57C499.77,292.13,491.09,290.51,489.73,284.62Z"/></svg>